<?xml version="1.0" encoding="UTF-8" standalone="no"?><svg xmlns="http://www.w3.org/2000/svg" xmlns:xlink="http://www.w3.org/1999/xlink" contentScriptType="application/ecmascript" contentStyleType="text/css" height="811px" preserveAspectRatio="none" style="width:784px;height:811px;" version="1.1" viewBox="0 0 784 811" width="784px" zoomAndPan="magnify"><defs><filter height="300%" id="f32zj6p1eqtqh" width="300%" x="-1" y="-1"><feGaussianBlur result="blurOut" stdDeviation="2.0"/><feColorMatrix in="blurOut" result="blurOut2" type="matrix" values="0 0 0 0 0 0 0 0 0 0 0 0 0 0 0 0 0 0 .4 0"/><feOffset dx="4.0" dy="4.0" in="blurOut2" result="blurOut3"/><feBlend in="SourceGraphic" in2="blurOut3" mode="normal"/></filter></defs><g><!--MD5=[c8375d0abf05781a4d00ac7db9cff037]
cluster host--><polygon fill="#FFFFFF" filter="url(#f32zj6p1eqtqh)" points="22,152,63,152,70,174.2969,682,174.2969,682,799,22,799,22,152" style="stroke: #000000; stroke-width: 1.5;"/><line style="stroke: #000000; stroke-width: 1.5;" x1="22" x2="70" y1="174.2969" y2="174.2969"/><text fill="#000000" font-family="sans-serif" font-size="14" font-weight="bold" lengthAdjust="spacingAndGlyphs" textLength="35" x="26" y="166.9951">host</text><path d="M66.4839,207.9658 C75.2241,189.2889 90.7527,187.084 104.3864,202.5302 C114.3595,183.6683 134.7755,184.9548 145.4175,201.7609 C158.3151,182.0164 169.8165,180.2728 183.5656,200.9574 C197.3119,181.6535 214.6915,182.9879 224.77,204.6469 C239.4285,184.4939 252.0281,184.2806 264.685,206.531 C280.6257,190.0462 294.9021,190.9895 308,210 C309.845,207.9096 311.205,207.9992 312.3903,210.6153 C326.9711,222.3274 324.5127,234.416 309.8844,243.931 C327.1123,251.4611 330.7158,270.1242 314.6737,281.8558 C333.6,292.9945 332.4076,306.4718 314.8242,317.7636 C329.7936,329.0112 326.53,344.5578 310.4084,351.7679 C324.1362,358.8447 326.526,371.4539 314.5746,382.0622 C330.2048,391.326 336.2969,408.6656 316.4568,419.703 C328.1078,429.9907 329.533,442.9856 313.3201,450.4288 C332.3211,456.7409 329.7185,473.6595 317.3754,483.7826 C335.2305,495.093 332.4798,508.4482 316.1558,518.5599 C332.0906,530.5502 329.5764,546.9217 310.3713,553.0121 C327.9093,561.0621 328.4878,573.6227 314.7647,585.8545 C330.1734,598.6164 331.4822,611.3347 311.4857,620.7717 C327.3593,630.3634 327.7905,645.0324 311.4882,654.6265 C322.9709,671.774 324.9665,684.8007 301,692 C303.9031,691.5396 304.8271,692.9365 304.4654,695.61 C294.5573,714.1766 277.2026,715.6966 263.9366,699.528 C253.1558,720.4942 240.9397,723.4021 224.7592,704.886 C215.3901,728.3602 198.9081,724.7257 184.7698,709.8604 C170.3528,728.7637 152.9245,727.1414 142.4345,705.736 C128.2378,719.7475 111.1885,718.799 103.332,698.5085 C82.9582,719.1657 61.5119,711.3133 54,685 C55.2488,683.8246 56.8299,684.2406 57.4039,685.8305 C39.4165,674.1863 43.284,662.271 58.0694,651.2576 C40.5638,644.3342 39.4802,634.6722 51.329,621.1723 C35.7512,608.1801 36.416,596.3788 55.0855,587.1703 C38.8075,577.6499 41.3105,565.5536 54.3733,555.3759 C37.3271,547.2864 30.285,530.8585 48.7221,517.4779 C32.1837,509.437 32.5752,492.5079 47.4741,483.3185 C32.74,473.8996 33.8793,461.4258 47.1934,451.7575 C29.3044,439.6534 29.3814,428.516 46.8201,416.0427 C32.6406,402.0552 37.6142,392.4264 53.1639,384.3988 C33.8189,374.6435 33.1013,362.1076 51.0294,350.037 C33.4872,339.2156 36.8133,329.4105 50.1307,317.7305 C33.7492,305.8412 37.0997,288.6511 53.7652,279.9402 C39.6822,271.5173 41.5687,257.3517 54.9583,250.0245 C36.5759,231.6341 38.2205,216.102 61,203 C64.9782,201.9698 67.0747,203.9502 66.4839,207.9658 " fill="#FFFFFF" style="stroke: #000000; stroke-width: 1.5;"/><!--MD5=[3f1c0ee212558f881841567ba63ec63a]
entity sensor_conf--><polygon fill="#FEFECE" filter="url(#f32zj6p1eqtqh)" points="80,747,80,783.2969,304,783.2969,304,757,294,747,80,747" style="stroke: #000000; stroke-width: 1.5;"/><path d="M294,747 L294,757 L304,757 " fill="#FEFECE" style="stroke: #000000; stroke-width: 1.5;"/><text fill="#000000" font-family="sans-serif" font-size="14" lengthAdjust="spacingAndGlyphs" textLength="204" x="90" y="769.9951">./sensor/hwpc-mongodb.json</text><!--MD5=[e9be86bc547b9abe2224b91dff6d3109]
entity formula_conf--><polygon fill="#FEFECE" filter="url(#f32zj6p1eqtqh)" points="332.5,551,332.5,587.2969,665.5,587.2969,665.5,561,655.5,551,332.5,551" style="stroke: #000000; stroke-width: 1.5;"/><path d="M655.5,551 L655.5,561 L665.5,561 " fill="#FEFECE" style="stroke: #000000; stroke-width: 1.5;"/><text fill="#000000" font-family="sans-serif" font-size="14" lengthAdjust="spacingAndGlyphs" textLength="313" x="342.5" y="573.9951">./formula/smartwatts-mongodb-influxdb2.json</text><!--MD5=[01ced5e465c1ad281c9e9cfff988fd4f]
entity grafana_conf--><polygon fill="#FEFECE" filter="url(#f32zj6p1eqtqh)" points="332.5,324,332.5,392.8906,589.5,392.8906,589.5,334,579.5,324,332.5,324" style="stroke: #000000; stroke-width: 1.5;"/><path d="M579.5,324 L579.5,334 L589.5,334 " fill="#FEFECE" style="stroke: #000000; stroke-width: 1.5;"/><text fill="#000000" font-family="sans-serif" font-size="14" lengthAdjust="spacingAndGlyphs" textLength="174" x="342.5" y="346.9951">./grafana/dashboards.yml</text><text fill="#000000" font-family="sans-serif" font-size="14" lengthAdjust="spacingAndGlyphs" textLength="237" x="342.5" y="363.292">./grafana/datasource-influxdb2.yml</text><text fill="#000000" font-family="sans-serif" font-size="14" lengthAdjust="spacingAndGlyphs" textLength="233" x="342.5" y="379.5889">./grafana/power-api-influxdb2.json</text><!--MD5=[88723051146da09166554e42ec8ff111]
entity sensor--><rect fill="#FEFECE" filter="url(#f32zj6p1eqtqh)" height="36.2969" style="stroke: #A80036; stroke-width: 1.5;" width="68" x="158" y="648"/><rect fill="#FEFECE" height="5" style="stroke: #A80036; stroke-width: 1.5;" width="10" x="153" y="653"/><rect fill="#FEFECE" height="5" style="stroke: #A80036; stroke-width: 1.5;" width="10" x="153" y="674.2969"/><text fill="#000000" font-family="sans-serif" font-size="14" lengthAdjust="spacingAndGlyphs" textLength="48" x="168" y="670.9951">sensor</text><!--MD5=[a3660b1a6a3394f243ce337f96f33b73]
entity formula--><rect fill="#FEFECE" filter="url(#f32zj6p1eqtqh)" height="36.2969" style="stroke: #A80036; stroke-width: 1.5;" width="71" x="62.5" y="454"/><rect fill="#FEFECE" height="5" style="stroke: #A80036; stroke-width: 1.5;" width="10" x="57.5" y="459"/><rect fill="#FEFECE" height="5" style="stroke: #A80036; stroke-width: 1.5;" width="10" x="57.5" y="480.2969"/><text fill="#000000" font-family="sans-serif" font-size="14" lengthAdjust="spacingAndGlyphs" textLength="51" x="72.5" y="476.9951">formula</text><!--MD5=[920f55dacc69cbaf43b0aa823f7e1721]
entity mongodb--><rect fill="#FEFECE" filter="url(#f32zj6p1eqtqh)" height="36.2969" style="stroke: #A80036; stroke-width: 1.5;" width="87" x="148.5" y="551"/><rect fill="#FEFECE" height="5" style="stroke: #A80036; stroke-width: 1.5;" width="10" x="143.5" y="556"/><rect fill="#FEFECE" height="5" style="stroke: #A80036; stroke-width: 1.5;" width="10" x="143.5" y="577.2969"/><text fill="#000000" font-family="sans-serif" font-size="14" lengthAdjust="spacingAndGlyphs" textLength="67" x="158.5" y="573.9951">mongodb</text><!--MD5=[e1274413823b2aecb6a828d3df10bd14]
entity mongo_express--><rect fill="#FEFECE" filter="url(#f32zj6p1eqtqh)" height="36.2969" style="stroke: #A80036; stroke-width: 1.5;" width="131" x="168.5" y="454"/><rect fill="#FEFECE" height="5" style="stroke: #A80036; stroke-width: 1.5;" width="10" x="163.5" y="459"/><rect fill="#FEFECE" height="5" style="stroke: #A80036; stroke-width: 1.5;" width="10" x="163.5" y="480.2969"/><text fill="#000000" font-family="sans-serif" font-size="14" lengthAdjust="spacingAndGlyphs" textLength="111" x="178.5" y="476.9951">mongo_express</text><!--MD5=[f7a2569a7aa5d66a15095e9b9e907c7a]
entity influxdb2--><rect fill="#FEFECE" filter="url(#f32zj6p1eqtqh)" height="36.2969" style="stroke: #A80036; stroke-width: 1.5;" width="82" x="215" y="340.5"/><rect fill="#FEFECE" height="5" style="stroke: #A80036; stroke-width: 1.5;" width="10" x="210" y="345.5"/><rect fill="#FEFECE" height="5" style="stroke: #A80036; stroke-width: 1.5;" width="10" x="210" y="366.7969"/><text fill="#000000" font-family="sans-serif" font-size="14" lengthAdjust="spacingAndGlyphs" textLength="62" x="225" y="363.4951">influxdb2</text><!--MD5=[97029dda41c7f1332efacff3a5502fd8]
entity grafana--><rect fill="#FEFECE" filter="url(#f32zj6p1eqtqh)" height="36.2969" style="stroke: #A80036; stroke-width: 1.5;" width="71" x="226.5" y="211"/><rect fill="#FEFECE" height="5" style="stroke: #A80036; stroke-width: 1.5;" width="10" x="221.5" y="216"/><rect fill="#FEFECE" height="5" style="stroke: #A80036; stroke-width: 1.5;" width="10" x="221.5" y="237.2969"/><text fill="#000000" font-family="sans-serif" font-size="14" lengthAdjust="spacingAndGlyphs" textLength="51" x="236.5" y="233.9951">grafana</text><!--MD5=[8fc3522a43f8c7199df5e09e5bb0188e]
entity user--><ellipse cx="418" cy="17.5" fill="#FEFECE" filter="url(#f32zj6p1eqtqh)" rx="8" ry="8" style="stroke: #A80036; stroke-width: 1.5;"/><path d="M418,25.5 L418,52.5 M405,33.5 L431,33.5 M418,52.5 L405,67.5 M418,52.5 L431,67.5 " fill="none" filter="url(#f32zj6p1eqtqh)" style="stroke: #A80036; stroke-width: 1.5;"/><text fill="#000000" font-family="sans-serif" font-size="14" lengthAdjust="spacingAndGlyphs" textLength="31" x="402.5" y="85.9951">user</text><!--MD5=[76286260649d01659287824b568d6919]
reverse link sensor to sensor_conf--><path d="M192,689.54 C192,707.01 192,730.86 192,746.81 " fill="none" id="sensor&lt;-sensor_conf" style="stroke: #000000; stroke-width: 1.0; stroke-dasharray: 7.0,7.0;"/><polygon fill="#000000" points="192,684.34,188,693.34,192,689.34,196,693.34,192,684.34" style="stroke: #000000; stroke-width: 1.0;"/><!--MD5=[053e6d91461054e6621e7ad193d9d11d]
reverse link formula to formula_conf--><path d="M138.45,486.38 C142.67,487.66 146.91,488.89 151,490 C239.58,514.08 342.27,536.43 413.02,550.98 " fill="none" id="formula&lt;-formula_conf" style="stroke: #000000; stroke-width: 1.0; stroke-dasharray: 7.0,7.0;"/><polygon fill="#000000" points="133.51,484.87,140.937,491.3383,138.2892,486.3394,143.2881,483.6916,133.51,484.87" style="stroke: #000000; stroke-width: 1.0;"/><!--MD5=[6b37257178d82764ca52c0c47d57584a]
reverse link grafana to grafana_conf--><path d="M293.26,250.03 C324.11,269.8 371.85,300.38 408.52,323.88 " fill="none" id="grafana&lt;-grafana_conf" style="stroke: #000000; stroke-width: 1.0; stroke-dasharray: 7.0,7.0;"/><polygon fill="#000000" points="288.84,247.2,294.2603,255.4232,293.0501,249.8973,298.5759,248.6871,288.84,247.2" style="stroke: #000000; stroke-width: 1.0;"/><!--MD5=[2372ee969bd99b0ea5cddc9d6c93fe90]
reverse link mongodb to sensor--><path d="M192,592.46 C192,609.37 192,632.19 192,647.69 " fill="none" id="mongodb&lt;-sensor" style="stroke: #FF0000; stroke-width: 1.0;"/><polygon fill="#FF0000" points="192,587.42,188,596.42,192,592.42,196,596.42,192,587.42" style="stroke: #FF0000; stroke-width: 1.0;"/><!--MD5=[a7d841c175eb5ed1463f2c88dfb50355]
reverse link formula to mongodb--><path d="M118.94,494.17 C135.78,511.18 159.14,534.79 174.87,550.69 " fill="none" id="formula&lt;-mongodb" style="stroke: #0000FF; stroke-width: 1.0;"/><polygon fill="#0000FF" points="115.24,490.42,118.7198,499.6336,118.754,493.9769,124.4108,494.0112,115.24,490.42" style="stroke: #0000FF; stroke-width: 1.0;"/><!--MD5=[245c5758581c14f3f6e1e88e2d24d941]
reverse link influxdb2 to formula--><path d="M227.34,379.72 C197.23,400.97 150.39,434.03 122.11,453.99 " fill="none" id="influxdb2&lt;-formula" style="stroke: #0000FF; stroke-width: 1.0;"/><polygon fill="#0000FF" points="231.66,376.68,222.0011,378.6049,227.576,379.5645,226.6163,385.1394,231.66,376.68" style="stroke: #0000FF; stroke-width: 1.0;"/><!--MD5=[af4b3d876902dcbfb3be489a5482191a]
reverse link grafana to influxdb2--><path d="M260.95,252.29 C259.77,277.32 257.89,317.38 256.82,340.17 " fill="none" id="grafana&lt;-influxdb2" style="stroke: #000000; stroke-width: 1.0;"/><polygon fill="#000000" points="261.19,247.2,256.782,256.0074,260.961,252.1948,264.7736,256.3737,261.19,247.2" style="stroke: #000000; stroke-width: 1.0;"/><!--MD5=[83c102237b845071bed8b211fbeb020c]
reverse link mongo_express to mongodb--><path d="M224.26,495.03 C216.77,511.97 206.57,535.05 199.65,550.69 " fill="none" id="mongo_express&lt;-mongodb" style="stroke: #000000; stroke-width: 1.0;"/><polygon fill="#000000" points="226.3,490.42,219.001,497.0324,224.2772,494.9926,226.3171,500.2688,226.3,490.42" style="stroke: #000000; stroke-width: 1.0;"/><!--MD5=[6ae8bd2450b59582416ac21eef876515]
reverse link user to mongo_express--><path d="M438.02,63.39 C505.61,111.89 715.88,277.08 621,393 C581.11,441.73 399.1,460.69 299.55,467.51 " fill="none" id="user&lt;-mongo_express" style="stroke: #000000; stroke-width: 1.0;"/><polygon fill="#000000" points="433.78,60.36,438.7899,68.8394,437.8525,63.2608,443.4312,62.3234,433.78,60.36" style="stroke: #000000; stroke-width: 1.0;"/><text fill="#000000" font-family="sans-serif" font-size="13" lengthAdjust="spacingAndGlyphs" textLength="131" x="641" y="290.0669">http://localhost:8081</text><!--MD5=[c8fa27da3a5af542e87d2658c6cd6656]
reverse link user to grafana--><path d="M397.11,51.54 C361.54,56.27 290.08,71.5 259,119 C240.76,146.88 249.02,187.95 255.96,210.89 " fill="none" id="user&lt;-grafana" style="stroke: #000000; stroke-width: 1.0;"/><polygon fill="#000000" points="402.49,50.87,393.0674,48.0039,397.5277,51.4832,394.0485,55.9435,402.49,50.87" style="stroke: #000000; stroke-width: 1.0;"/><text fill="#000000" font-family="sans-serif" font-size="13" lengthAdjust="spacingAndGlyphs" textLength="131" x="260" y="132.0669">http://localhost:3000</text><!--MD5=[557638a5b3cd356c03af8ed3b7bde96b]
reverse link user to influxdb2--><path d="M409.49,94.11 C406.12,107.85 401.67,122.82 396,136 C360.67,218.11 297.09,304.67 269.45,340.47 " fill="none" id="user&lt;-influxdb2" style="stroke: #000000; stroke-width: 1.0;"/><polygon fill="#000000" points="410.68,89.12,404.6814,96.9313,409.5077,93.9806,412.4584,98.807,410.68,89.12" style="stroke: #000000; stroke-width: 1.0;"/><text fill="#000000" font-family="sans-serif" font-size="13" lengthAdjust="spacingAndGlyphs" textLength="131" x="392" y="233.5669">http://localhost:8086</text><!--MD5=[adfeee2e5a04064939700e22260d27d8]
@startuml plantuml/mongodb_influxdb2
actor user
package host {
cloud {
    component sensor
    component formula
    component mongodb
    component mongo_express
    component influxdb2
    component grafana
  }
  file "./sensor/hwpc-mongodb.json" as sensor_conf
  file "./formula/smartwatts-mongodb-influxdb2.json" as formula_conf
  file "./grafana/dashboards.yml\n./grafana/datasource-influxdb2.yml\n./grafana/power-api-influxdb2.json" as grafana_conf
}
sensor <-[#black,dashed]- sensor_conf
formula <-[#black,dashed]- formula_conf
grafana <-[#black,dashed]- grafana_conf

mongodb <-[#red]- sensor

formula <-[#blue]- mongodb
influxdb2 <-[#blue]- formula

grafana <-[#black]- influxdb2

mongo_express <-[#black]- mongodb

user <-[#black]- mongo_express : http://localhost:8081
user <-[#black]- grafana : http://localhost:3000
user <-[#black]- influxdb2 : http://localhost:8086
@enduml

PlantUML version 1.2020.02(Sun Mar 01 11:22:07 CET 2020)
(GPL source distribution)
Java Runtime: OpenJDK Runtime Environment
JVM: OpenJDK 64-Bit Server VM
Java Version: 11.0.22+7-post-Ubuntu-0ubuntu222.04.1
Operating System: Linux
Default Encoding: UTF-8
Language: en
Country: null
--></g></svg>