<?xml version="1.0" encoding="UTF-8" standalone="no"?><svg xmlns="http://www.w3.org/2000/svg" xmlns:xlink="http://www.w3.org/1999/xlink" contentScriptType="application/ecmascript" contentStyleType="text/css" height="647px" preserveAspectRatio="none" style="width:742px;height:647px;" version="1.1" viewBox="0 0 742 647" width="742px" zoomAndPan="magnify"><defs><filter height="300%" id="fzmtr28ikmyrh" width="300%" x="-1" y="-1"><feGaussianBlur result="blurOut" stdDeviation="2.0"/><feColorMatrix in="blurOut" result="blurOut2" type="matrix" values="0 0 0 0 0 0 0 0 0 0 0 0 0 0 0 0 0 0 .4 0"/><feOffset dx="4.0" dy="4.0" in="blurOut2" result="blurOut3"/><feBlend in="SourceGraphic" in2="blurOut3" mode="normal"/></filter></defs><g><!--MD5=[c8375d0abf05781a4d00ac7db9cff037]
cluster host--><polygon fill="#FFFFFF" filter="url(#fzmtr28ikmyrh)" points="22,136,63,136,70,158.2969,720,158.2969,720,635,22,635,22,136" style="stroke: #000000; stroke-width: 1.5;"/><line style="stroke: #000000; stroke-width: 1.5;" x1="22" x2="70" y1="158.2969" y2="158.2969"/><text fill="#000000" font-family="sans-serif" font-size="14" font-weight="bold" lengthAdjust="spacingAndGlyphs" textLength="35" x="26" y="150.9951">host</text><path d="M63.2568,285.211 C69.7533,273.754 79.6078,274.3735 87.4139,283.688 C94.0417,273.4167 100.751,272.4865 107.6965,283.3837 C111.855,271.4024 123.0822,270.0485 130.6734,279.7453 C139.281,269.4502 146.9501,268.2753 154.8529,280.5019 C162.1422,270.8575 170.3017,271.8511 175.9239,282.2542 C179.8971,269.2874 190.502,267.3835 198.5701,278.3852 C207.1244,266.4049 215.3067,264.7506 223.9748,278.2719 C230.7464,269.0868 241.3802,269.4046 246.726,279.9186 C254.0908,267.2895 262.3925,268.3785 269.776,279.9008 C277.0814,269.5044 285.2483,273.5094 290.1413,282.4424 C296.1127,270.5859 307.25,271.4426 313.6962,281.9421 C321.6422,273.3049 328.4174,271.8319 334.4591,283.8558 C342.0985,272.2524 353.7154,272.8344 360.4643,284.8368 C369.8241,272.9552 380.5239,277.0594 386,289 C387.2407,287.2488 388.7166,287.6044 389.6437,289.3288 C403.9664,298.0857 401.2606,309.1266 388.2368,316.4658 C396.7723,321.6896 398.8662,330.2373 388.5627,335.779 C402.3903,341.0528 401.5599,350.6883 392.8438,359.9543 C403.8088,366.5941 405.5783,378.2151 393.5421,385.4839 C402.31,393.1256 403.029,400.6473 392.4408,407.3124 C402.2191,415.7076 402.5055,423.4284 392.3415,431.7425 C403.1257,439.0518 400.7956,450.0053 389.9522,455.1026 C398.9523,461.1105 399.6912,468.1592 391.4605,475.4447 C402.9738,484.4941 400.4535,493.7199 388.6145,500.0704 C399.8153,514.2019 393.7991,522.8187 379,528 C380.0084,528.458 380.4225,529.1299 379.5291,530.0732 C373.061,540.8949 363.0028,541.4777 356.8696,529.7369 C351.0649,541.2391 342.9685,541.9456 335.3983,531.4611 C328.9443,541.6881 322.063,541.924 314.4789,532.6749 C305.1456,542.6364 297.4175,543.3772 290.3187,530.3287 C284.6696,540.3306 274.7319,542.472 268.5351,530.8812 C262.0132,542.3701 252.1019,543.2224 244.0355,532.592 C236.4946,543.8819 227.1145,542.8817 220.0734,532.0506 C215.0459,541.4722 206.8201,543.1339 200.759,533.0754 C191.6603,543.8284 183.7942,540.1771 178.1906,529.4102 C171.5195,541.5733 160.1028,542.504 153.728,529.1264 C148.2964,538.7218 139.7443,539.294 133.4092,530.1035 C125.5907,545.0177 116.357,544.6317 106.882,531.6804 C101.7701,542.737 91.1791,541.7185 85.3919,532.3924 C69.4344,542.2685 59.0228,541.2547 54,521 C55.6992,521.9382 55.5599,523.1271 54.1328,524.1952 C41.1951,515.6688 43.6832,505.8358 55.0079,498.1239 C44.7293,491.5059 45.432,484.3085 53.9041,476.7234 C41.5941,473.8017 39.918,462.8092 48.385,454.6844 C37.114,447.3434 36.7162,434.8139 50.482,429.5628 C39.8984,425.1273 36.9441,414.9268 45.9447,406.6184 C36.1026,397.403 37.6637,389.9316 50.3809,385.4422 C36.6901,378.46 38.2238,369.4821 48.6948,360.8437 C36.7219,351.1904 41.057,340.1704 54.3387,336.3322 C43.3208,329.2976 43.1892,318.4475 55.6584,312.7259 C42.763,301.9973 46.8376,288.0247 61,282 C63.1605,281.9979 64.0551,283.1335 63.2568,285.211 " fill="#FFFFFF" style="stroke: #000000; stroke-width: 1.5;"/><!--MD5=[d9c70ef346bab41c919f7eded3117927]
entity csv_folder--><polygon fill="#FEFECE" filter="url(#fzmtr28ikmyrh)" points="136.5,171,182.5,171,189.5,192,235.5,192,235.5,226.5938,136.5,226.5938,136.5,171" style="stroke: #000000; stroke-width: 1.5;"/><line style="stroke: #000000; stroke-width: 1.5;" x1="136.5" x2="189.5" y1="192" y2="192"/><text fill="#000000" font-family="sans-serif" font-size="14" lengthAdjust="spacingAndGlyphs" textLength="32" x="146.5" y="211.9951">./csv</text><!--MD5=[3f1c0ee212558f881841567ba63ec63a]
entity sensor_conf--><polygon fill="#FEFECE" filter="url(#fzmtr28ikmyrh)" points="119,583,119,619.2969,343,619.2969,343,593,333,583,119,583" style="stroke: #000000; stroke-width: 1.5;"/><path d="M333,583 L333,593 L343,593 " fill="#FEFECE" style="stroke: #000000; stroke-width: 1.5;"/><text fill="#000000" font-family="sans-serif" font-size="14" lengthAdjust="spacingAndGlyphs" textLength="204" x="129" y="605.9951">./sensor/hwpc-mongodb.json</text><!--MD5=[e9be86bc547b9abe2224b91dff6d3109]
entity formula_conf--><polygon fill="#FEFECE" filter="url(#fzmtr28ikmyrh)" points="410,387,410,423.2969,704,423.2969,704,397,694,387,410,387" style="stroke: #000000; stroke-width: 1.5;"/><path d="M694,387 L694,397 L704,397 " fill="#FEFECE" style="stroke: #000000; stroke-width: 1.5;"/><text fill="#000000" font-family="sans-serif" font-size="14" lengthAdjust="spacingAndGlyphs" textLength="274" x="420" y="409.9951">./formula/smartwatts-mongodb-csv.json</text><!--MD5=[88723051146da09166554e42ec8ff111]
entity sensor--><rect fill="#FEFECE" filter="url(#fzmtr28ikmyrh)" height="36.2969" style="stroke: #A80036; stroke-width: 1.5;" width="68" x="197" y="484"/><rect fill="#FEFECE" height="5" style="stroke: #A80036; stroke-width: 1.5;" width="10" x="192" y="489"/><rect fill="#FEFECE" height="5" style="stroke: #A80036; stroke-width: 1.5;" width="10" x="192" y="510.2969"/><text fill="#000000" font-family="sans-serif" font-size="14" lengthAdjust="spacingAndGlyphs" textLength="48" x="207" y="506.9951">sensor</text><!--MD5=[a3660b1a6a3394f243ce337f96f33b73]
entity formula--><rect fill="#FEFECE" filter="url(#fzmtr28ikmyrh)" height="36.2969" style="stroke: #A80036; stroke-width: 1.5;" width="71" x="62.5" y="290"/><rect fill="#FEFECE" height="5" style="stroke: #A80036; stroke-width: 1.5;" width="10" x="57.5" y="295"/><rect fill="#FEFECE" height="5" style="stroke: #A80036; stroke-width: 1.5;" width="10" x="57.5" y="316.2969"/><text fill="#000000" font-family="sans-serif" font-size="14" lengthAdjust="spacingAndGlyphs" textLength="51" x="72.5" y="312.9951">formula</text><!--MD5=[5b5b6116e9ca12b5be308e1a61d0aa39]
entity csv--><rect fill="#FEFECE" filter="url(#fzmtr28ikmyrh)" height="36.2969" style="stroke: #A80036; stroke-width: 1.5;" width="43" x="168.5" y="290"/><rect fill="#FEFECE" height="5" style="stroke: #A80036; stroke-width: 1.5;" width="10" x="163.5" y="295"/><rect fill="#FEFECE" height="5" style="stroke: #A80036; stroke-width: 1.5;" width="10" x="163.5" y="316.2969"/><text fill="#000000" font-family="sans-serif" font-size="14" lengthAdjust="spacingAndGlyphs" textLength="23" x="178.5" y="312.9951">csv</text><!--MD5=[920f55dacc69cbaf43b0aa823f7e1721]
entity mongodb--><rect fill="#FEFECE" filter="url(#fzmtr28ikmyrh)" height="36.2969" style="stroke: #A80036; stroke-width: 1.5;" width="87" x="187.5" y="387"/><rect fill="#FEFECE" height="5" style="stroke: #A80036; stroke-width: 1.5;" width="10" x="182.5" y="392"/><rect fill="#FEFECE" height="5" style="stroke: #A80036; stroke-width: 1.5;" width="10" x="182.5" y="413.2969"/><text fill="#000000" font-family="sans-serif" font-size="14" lengthAdjust="spacingAndGlyphs" textLength="67" x="197.5" y="409.9951">mongodb</text><!--MD5=[e1274413823b2aecb6a828d3df10bd14]
entity mongo_express--><rect fill="#FEFECE" filter="url(#fzmtr28ikmyrh)" height="36.2969" style="stroke: #A80036; stroke-width: 1.5;" width="131" x="246.5" y="290"/><rect fill="#FEFECE" height="5" style="stroke: #A80036; stroke-width: 1.5;" width="10" x="241.5" y="295"/><rect fill="#FEFECE" height="5" style="stroke: #A80036; stroke-width: 1.5;" width="10" x="241.5" y="316.2969"/><text fill="#000000" font-family="sans-serif" font-size="14" lengthAdjust="spacingAndGlyphs" textLength="111" x="256.5" y="312.9951">mongo_express</text><!--MD5=[8fc3522a43f8c7199df5e09e5bb0188e]
entity user--><ellipse cx="248" cy="17.5" fill="#FEFECE" filter="url(#fzmtr28ikmyrh)" rx="8" ry="8" style="stroke: #A80036; stroke-width: 1.5;"/><path d="M248,25.5 L248,52.5 M235,33.5 L261,33.5 M248,52.5 L235,67.5 M248,52.5 L261,67.5 " fill="none" filter="url(#fzmtr28ikmyrh)" style="stroke: #A80036; stroke-width: 1.5;"/><text fill="#000000" font-family="sans-serif" font-size="14" lengthAdjust="spacingAndGlyphs" textLength="31" x="232.5" y="85.9951">user</text><!--MD5=[76286260649d01659287824b568d6919]
reverse link sensor to sensor_conf--><path d="M231,525.54 C231,543.01 231,566.86 231,582.81 " fill="none" id="sensor&lt;-sensor_conf" style="stroke: #000000; stroke-width: 1.0; stroke-dasharray: 7.0,7.0;"/><polygon fill="#000000" points="231,520.34,227,529.34,231,525.34,235,529.34,231,520.34" style="stroke: #000000; stroke-width: 1.0;"/><!--MD5=[053e6d91461054e6621e7ad193d9d11d]
reverse link formula to formula_conf--><path d="M138.62,322.58 C142.78,323.8 146.96,324.97 151,326 C251.14,351.58 367.08,373.06 449.37,386.96 " fill="none" id="formula&lt;-formula_conf" style="stroke: #000000; stroke-width: 1.0; stroke-dasharray: 7.0,7.0;"/><polygon fill="#000000" points="133.75,321.11,141.2298,327.5172,138.5411,322.5402,143.5181,319.8514,133.75,321.11" style="stroke: #000000; stroke-width: 1.0;"/><!--MD5=[2372ee969bd99b0ea5cddc9d6c93fe90]
reverse link mongodb to sensor--><path d="M231,428.46 C231,445.37 231,468.19 231,483.69 " fill="none" id="mongodb&lt;-sensor" style="stroke: #FF0000; stroke-width: 1.0;"/><polygon fill="#FF0000" points="231,423.42,227,432.42,231,428.42,235,432.42,231,423.42" style="stroke: #FF0000; stroke-width: 1.0;"/><!--MD5=[a7d841c175eb5ed1463f2c88dfb50355]
reverse link formula to mongodb--><path d="M126.45,329.32 C150.47,346.48 184.46,370.76 207.09,386.92 " fill="none" id="formula&lt;-mongodb" style="stroke: #0000FF; stroke-width: 1.0;"/><polygon fill="#0000FF" points="122.09,326.2,127.0858,334.6877,126.1577,329.1075,131.7379,328.1794,122.09,326.2" style="stroke: #0000FF; stroke-width: 1.0;"/><!--MD5=[923a858c3150030d00844e94b4b36acd]
reverse link csv_folder to formula--><path d="M160.3,231.24 C144.62,250.31 125.16,273.97 112.21,289.73 " fill="none" id="csv_folder&lt;-formula" style="stroke: #0000FF; stroke-width: 1.0;"/><polygon fill="#0000FF" points="163.79,227,154.9843,231.4114,160.6145,230.8621,161.1638,236.4923,163.79,227" style="stroke: #0000FF; stroke-width: 1.0;"/><!--MD5=[e412d9c23bcbf7d16ce92c1a8d50efba]
reverse link csv_folder to csv--><path d="M187.2,232.21 C187.91,251.11 188.78,274.24 189.35,289.73 " fill="none" id="csv_folder&lt;-csv" style="stroke: #000000; stroke-width: 1.0;"/><polygon fill="#000000" points="187.01,227,183.3468,236.1423,187.1956,231.9966,191.3413,235.8453,187.01,227" style="stroke: #000000; stroke-width: 1.0;"/><!--MD5=[6e242923bdc4a7b2d1cf43bb219e652e]
reverse link csv to csv_folder--><path d="M189.15,284.3 C188.53,267.55 187.67,244.69 187.01,227 " fill="none" id="csv&lt;-csv_folder" style="stroke: #000000; stroke-width: 1.0;"/><polygon fill="#000000" points="189.35,289.73,192.9871,280.5773,189.1502,284.734,184.9935,280.8971,189.35,289.73" style="stroke: #000000; stroke-width: 1.0;"/><!--MD5=[83c102237b845071bed8b211fbeb020c]
reverse link mongo_express to mongodb--><path d="M293.59,330.6 C279.11,347.58 259.21,370.92 245.76,386.69 " fill="none" id="mongo_express&lt;-mongodb" style="stroke: #000000; stroke-width: 1.0;"/><polygon fill="#000000" points="297.14,326.42,288.2551,330.6694,293.8943,330.2233,294.3404,335.8626,297.14,326.42" style="stroke: #000000; stroke-width: 1.0;"/><!--MD5=[10db3e34bfc23dd8917552c3e5c7e640]
reverse link user to csv_folder--><path d="M230.4,91.64 C219.79,117.07 206.58,148.71 197.34,170.85 " fill="none" id="user&lt;-csv_folder" style="stroke: #000000; stroke-width: 1.0;"/><polygon fill="#000000" points="232.35,86.97,225.1887,93.7314,230.4219,91.5833,232.57,96.8164,232.35,86.97" style="stroke: #000000; stroke-width: 1.0;"/><!--MD5=[6ae8bd2450b59582416ac21eef876515]
reverse link user to mongo_express--><path d="M261.63,94.3 C264.83,105.28 268.14,117.04 271,128 C286.41,187.08 301.71,257.93 308.44,289.89 " fill="none" id="user&lt;-mongo_express" style="stroke: #000000; stroke-width: 1.0;"/><polygon fill="#000000" points="260.16,89.31,258.8668,99.0736,261.5731,94.1061,266.5406,96.8125,260.16,89.31" style="stroke: #000000; stroke-width: 1.0;"/><text fill="#000000" font-family="sans-serif" font-size="13" lengthAdjust="spacingAndGlyphs" textLength="131" x="295" y="203.5669">http://localhost:8081</text><!--MD5=[5a9a82b7acf685b5eaaf60dffcac8122]
@startuml plantuml/mongodb_csv
actor user
package host {
cloud {
    component sensor
    component formula
    component csv
    component mongodb
    component mongo_express
  }
  folder "./csv" as csv_folder
  file "./sensor/hwpc-mongodb.json" as sensor_conf
  file "./formula/smartwatts-mongodb-csv.json" as formula_conf
}
sensor <-[#black,dashed]- sensor_conf
formula <-[#black,dashed]- formula_conf

mongodb <-[#red]- sensor

formula <-[#blue]- mongodb
csv_folder <-[#blue]- formula

csv_folder <-[#black]- csv
csv <-[#black]- csv_folder

mongo_express <-[#black]- mongodb

user <-[#black]- csv_folder
user <-[#black]- mongo_express : http://localhost:8081
@enduml

PlantUML version 1.2020.02(Sun Mar 01 11:22:07 CET 2020)
(GPL source distribution)
Java Runtime: OpenJDK Runtime Environment
JVM: OpenJDK 64-Bit Server VM
Java Version: 11.0.22+7-post-Ubuntu-0ubuntu222.04.1
Operating System: Linux
Default Encoding: UTF-8
Language: en
Country: null
--></g></svg>