<?xml version="1.0" encoding="UTF-8" standalone="no"?><svg xmlns="http://www.w3.org/2000/svg" xmlns:xlink="http://www.w3.org/1999/xlink" contentScriptType="application/ecmascript" contentStyleType="text/css" height="647px" preserveAspectRatio="none" style="width:770px;height:647px;" version="1.1" viewBox="0 0 770 647" width="770px" zoomAndPan="magnify"><defs><filter height="300%" id="f17gs2gqzhjrib" width="300%" x="-1" y="-1"><feGaussianBlur result="blurOut" stdDeviation="2.0"/><feColorMatrix in="blurOut" result="blurOut2" type="matrix" values="0 0 0 0 0 0 0 0 0 0 0 0 0 0 0 0 0 0 .4 0"/><feOffset dx="4.0" dy="4.0" in="blurOut2" result="blurOut3"/><feBlend in="SourceGraphic" in2="blurOut3" mode="normal"/></filter></defs><g><!--MD5=[c8375d0abf05781a4d00ac7db9cff037]
cluster host--><polygon fill="#FFFFFF" filter="url(#f17gs2gqzhjrib)" points="22,136,63,136,70,158.2969,748,158.2969,748,635,22,635,22,136" style="stroke: #000000; stroke-width: 1.5;"/><line style="stroke: #000000; stroke-width: 1.5;" x1="22" x2="70" y1="158.2969" y2="158.2969"/><text fill="#000000" font-family="sans-serif" font-size="14" font-weight="bold" lengthAdjust="spacingAndGlyphs" textLength="35" x="26" y="150.9951">host</text><path d="M61.9327,283.0926 C71.0828,269.8655 79.0407,271.7074 88.1332,283.1538 C96.7558,272.2524 104.555,274.1728 111.6988,284.7744 C117.2449,272.6455 127.2791,271.1364 134.683,282.9943 C141.4558,273.0818 148.5117,270.5645 157.1243,280.9612 C163.8678,271.0424 173.8225,268.934 180.2176,281.3218 C187.3517,269.3269 199.4572,270.6496 205.9558,282.0217 C212.7698,271.0891 220.1347,271.3867 228.1849,280.6619 C237.5701,270.2511 246.2898,269.4346 254.2051,282.3046 C260.9952,272.0992 267.5729,269.7526 275.7944,280.8544 C282.4646,269.9974 294.7752,271.4637 300.7641,281.6624 C309.4277,268.6819 317.9523,270.8895 325.7434,282.5471 C333.6828,272.9081 340.9493,275.0332 346.3241,285.2106 C354.0732,270.8583 362.7195,272.3174 372.6812,282.8688 C383.0509,271.1782 395.6867,273.7051 400,289 C400.9383,288.8981 401.4363,289.2408 401.2463,290.2574 C413.2244,296.9536 412.951,306.2987 403.2046,314.7331 C413.5547,320.6134 416.0337,329.4262 405.5998,337.4937 C417.4342,343.6218 418.6245,350.3864 407.8394,358.8829 C420.7083,364.6741 422.7746,376.1233 412.3824,385.8352 C420.7196,391.2572 423.4138,399.2654 413.0522,405.3298 C426.6291,413.6831 425.353,424.0582 412.2624,431.61 C422.6166,439.514 421.2858,447.7901 411.5422,455.0774 C421.012,463.7107 422.2067,470.9652 409.3656,477.4256 C420.6054,486.9709 416.1166,494.9529 405.3966,500.7635 C414.6237,516.3129 410.2873,524.5185 393,528 C394.0865,526.9244 394.8488,527.1962 395.5888,528.3945 C389.1664,541.9469 378.1396,543.8203 369.4517,530.6068 C363.5066,540.9821 354.1744,544.5331 346.4105,532.4749 C340.194,543.8637 332.1098,546.3728 322.8177,535.7753 C315.6407,547.695 304.5243,544.8457 299.0877,533.964 C291.5036,544.667 284.4351,546.0814 275.6087,535.3231 C272.4738,547.4182 261.9736,551.1805 253.2638,540.8871 C247.0883,554.3778 235.5855,553.4751 228.1567,542.1554 C220.0213,552.1971 210.1808,547.649 206.3206,537.5258 C200.042,549.9179 190.0751,550.2314 181.9568,539.461 C173.9975,549.2123 163.1403,551.413 156.5743,537.9384 C148.6127,549.0605 140.0742,545.8764 134.4343,535.5425 C126.9353,547.6656 116.7054,548.9653 109.4578,535.2991 C100.8574,543.5085 92.1684,541.7307 87.9889,530.4335 C74.4806,545.2889 57.8875,540.8082 54,521 C54.784,520.4799 55.3368,520.7563 55.3808,521.6987 C45.4406,515.3314 44.1863,509.2804 54.2708,501.7964 C41.0822,493.8195 44.1273,481.7778 56.2764,475.752 C45.0468,470.8447 44.3158,459.775 53.2832,452.2909 C42.2585,445.5477 42.7123,437.7754 53.6352,431.4021 C42.5091,424.957 43.6037,414.1272 54.5031,408.5174 C42.3434,401.6379 42.8771,389.9799 53.6248,382.3322 C43.5703,375.8505 45.5625,368.8755 54.1415,362.8888 C42.5899,353.6385 46.0677,344.8211 57.0536,338.2327 C44.2402,333.0814 42.4296,324.376 53.7374,315.6781 C38.3993,301.6556 44.4464,289.1451 61,282 C61.7229,281.9548 62.0973,282.3801 61.9327,283.0926 " fill="#FFFFFF" style="stroke: #000000; stroke-width: 1.5;"/><!--MD5=[9f44bde9ef835cd7b6045d15fc059186]
entity filedb_folder--><polygon fill="#FEFECE" filter="url(#f17gs2gqzhjrib)" points="136.5,171,182.5,171,189.5,192,249.5,192,249.5,226.5938,136.5,226.5938,136.5,171" style="stroke: #000000; stroke-width: 1.5;"/><line style="stroke: #000000; stroke-width: 1.5;" x1="136.5" x2="189.5" y1="192" y2="192"/><text fill="#000000" font-family="sans-serif" font-size="14" lengthAdjust="spacingAndGlyphs" textLength="46" x="146.5" y="211.9951">./filedb</text><!--MD5=[3f1c0ee212558f881841567ba63ec63a]
entity sensor_conf--><polygon fill="#FEFECE" filter="url(#f17gs2gqzhjrib)" points="126,583,126,619.2969,350,619.2969,350,593,340,583,126,583" style="stroke: #000000; stroke-width: 1.5;"/><path d="M340,583 L340,593 L350,593 " fill="#FEFECE" style="stroke: #000000; stroke-width: 1.5;"/><text fill="#000000" font-family="sans-serif" font-size="14" lengthAdjust="spacingAndGlyphs" textLength="204" x="136" y="605.9951">./sensor/hwpc-mongodb.json</text><!--MD5=[e9be86bc547b9abe2224b91dff6d3109]
entity formula_conf--><polygon fill="#FEFECE" filter="url(#f17gs2gqzhjrib)" points="424,387,424,423.2969,732,423.2969,732,397,722,387,424,387" style="stroke: #000000; stroke-width: 1.5;"/><path d="M722,387 L722,397 L732,397 " fill="#FEFECE" style="stroke: #000000; stroke-width: 1.5;"/><text fill="#000000" font-family="sans-serif" font-size="14" lengthAdjust="spacingAndGlyphs" textLength="288" x="434" y="409.9951">./formula/smartwatts-mongodb-filedb.json</text><!--MD5=[88723051146da09166554e42ec8ff111]
entity sensor--><rect fill="#FEFECE" filter="url(#f17gs2gqzhjrib)" height="36.2969" style="stroke: #A80036; stroke-width: 1.5;" width="68" x="204" y="484"/><rect fill="#FEFECE" height="5" style="stroke: #A80036; stroke-width: 1.5;" width="10" x="199" y="489"/><rect fill="#FEFECE" height="5" style="stroke: #A80036; stroke-width: 1.5;" width="10" x="199" y="510.2969"/><text fill="#000000" font-family="sans-serif" font-size="14" lengthAdjust="spacingAndGlyphs" textLength="48" x="214" y="506.9951">sensor</text><!--MD5=[a3660b1a6a3394f243ce337f96f33b73]
entity formula--><rect fill="#FEFECE" filter="url(#f17gs2gqzhjrib)" height="36.2969" style="stroke: #A80036; stroke-width: 1.5;" width="71" x="62.5" y="290"/><rect fill="#FEFECE" height="5" style="stroke: #A80036; stroke-width: 1.5;" width="10" x="57.5" y="295"/><rect fill="#FEFECE" height="5" style="stroke: #A80036; stroke-width: 1.5;" width="10" x="57.5" y="316.2969"/><text fill="#000000" font-family="sans-serif" font-size="14" lengthAdjust="spacingAndGlyphs" textLength="51" x="72.5" y="312.9951">formula</text><!--MD5=[bbe5fbffd1b029e6f34d5a21b2b0f309]
entity filedb--><rect fill="#FEFECE" filter="url(#f17gs2gqzhjrib)" height="36.2969" style="stroke: #A80036; stroke-width: 1.5;" width="57" x="168.5" y="290"/><rect fill="#FEFECE" height="5" style="stroke: #A80036; stroke-width: 1.5;" width="10" x="163.5" y="295"/><rect fill="#FEFECE" height="5" style="stroke: #A80036; stroke-width: 1.5;" width="10" x="163.5" y="316.2969"/><text fill="#000000" font-family="sans-serif" font-size="14" lengthAdjust="spacingAndGlyphs" textLength="37" x="178.5" y="312.9951">filedb</text><!--MD5=[920f55dacc69cbaf43b0aa823f7e1721]
entity mongodb--><rect fill="#FEFECE" filter="url(#f17gs2gqzhjrib)" height="36.2969" style="stroke: #A80036; stroke-width: 1.5;" width="87" x="194.5" y="387"/><rect fill="#FEFECE" height="5" style="stroke: #A80036; stroke-width: 1.5;" width="10" x="189.5" y="392"/><rect fill="#FEFECE" height="5" style="stroke: #A80036; stroke-width: 1.5;" width="10" x="189.5" y="413.2969"/><text fill="#000000" font-family="sans-serif" font-size="14" lengthAdjust="spacingAndGlyphs" textLength="67" x="204.5" y="409.9951">mongodb</text><!--MD5=[e1274413823b2aecb6a828d3df10bd14]
entity mongo_express--><rect fill="#FEFECE" filter="url(#f17gs2gqzhjrib)" height="36.2969" style="stroke: #A80036; stroke-width: 1.5;" width="131" x="260.5" y="290"/><rect fill="#FEFECE" height="5" style="stroke: #A80036; stroke-width: 1.5;" width="10" x="255.5" y="295"/><rect fill="#FEFECE" height="5" style="stroke: #A80036; stroke-width: 1.5;" width="10" x="255.5" y="316.2969"/><text fill="#000000" font-family="sans-serif" font-size="14" lengthAdjust="spacingAndGlyphs" textLength="111" x="270.5" y="312.9951">mongo_express</text><!--MD5=[8fc3522a43f8c7199df5e09e5bb0188e]
entity user--><ellipse cx="258" cy="17.5" fill="#FEFECE" filter="url(#f17gs2gqzhjrib)" rx="8" ry="8" style="stroke: #A80036; stroke-width: 1.5;"/><path d="M258,25.5 L258,52.5 M245,33.5 L271,33.5 M258,52.5 L245,67.5 M258,52.5 L271,67.5 " fill="none" filter="url(#f17gs2gqzhjrib)" style="stroke: #A80036; stroke-width: 1.5;"/><text fill="#000000" font-family="sans-serif" font-size="14" lengthAdjust="spacingAndGlyphs" textLength="31" x="242.5" y="85.9951">user</text><!--MD5=[76286260649d01659287824b568d6919]
reverse link sensor to sensor_conf--><path d="M238,525.54 C238,543.01 238,566.86 238,582.81 " fill="none" id="sensor&lt;-sensor_conf" style="stroke: #000000; stroke-width: 1.0; stroke-dasharray: 7.0,7.0;"/><polygon fill="#000000" points="238,520.34,234,529.34,238,525.34,242,529.34,238,520.34" style="stroke: #000000; stroke-width: 1.0;"/><!--MD5=[053e6d91461054e6621e7ad193d9d11d]
reverse link formula to formula_conf--><path d="M138.61,322.61 C142.77,323.83 146.96,324.99 151,326 C255.17,352.1 375.67,373.31 462.05,386.99 " fill="none" id="formula&lt;-formula_conf" style="stroke: #000000; stroke-width: 1.0; stroke-dasharray: 7.0,7.0;"/><polygon fill="#000000" points="133.74,321.16,141.2251,327.5611,138.5323,322.5863,143.5071,319.8935,133.74,321.16" style="stroke: #000000; stroke-width: 1.0;"/><!--MD5=[2372ee969bd99b0ea5cddc9d6c93fe90]
reverse link mongodb to sensor--><path d="M238,428.46 C238,445.37 238,468.19 238,483.69 " fill="none" id="mongodb&lt;-sensor" style="stroke: #FF0000; stroke-width: 1.0;"/><polygon fill="#FF0000" points="238,423.42,234,432.42,238,428.42,242,432.42,238,423.42" style="stroke: #FF0000; stroke-width: 1.0;"/><!--MD5=[a7d841c175eb5ed1463f2c88dfb50355]
reverse link formula to mongodb--><path d="M127.63,329.11 C152.93,346.27 188.91,370.69 212.84,386.92 " fill="none" id="formula&lt;-mongodb" style="stroke: #0000FF; stroke-width: 1.0;"/><polygon fill="#0000FF" points="123.35,326.2,128.5668,334.5537,127.4926,328.9998,133.0465,327.9256,123.35,326.2" style="stroke: #0000FF; stroke-width: 1.0;"/><!--MD5=[9920236158efeee9ba1a2aeb1c65bb37]
reverse link filedb_folder to formula--><path d="M165.69,230.76 C148.68,249.91 127.44,273.84 113.34,289.73 " fill="none" id="filedb_folder&lt;-formula" style="stroke: #0000FF; stroke-width: 1.0;"/><polygon fill="#0000FF" points="169.03,227,160.0688,231.0862,165.7153,230.7433,166.0582,236.3898,169.03,227" style="stroke: #0000FF; stroke-width: 1.0;"/><!--MD5=[9a2128acd8042667d8ebc2977597e504]
reverse link filedb_folder to filedb--><path d="M194.2,232.21 C194.91,251.11 195.78,274.24 196.35,289.73 " fill="none" id="filedb_folder&lt;-filedb" style="stroke: #000000; stroke-width: 1.0;"/><polygon fill="#000000" points="194.01,227,190.3468,236.1423,194.1956,231.9966,198.3413,235.8453,194.01,227" style="stroke: #000000; stroke-width: 1.0;"/><!--MD5=[8abd1962aa014eafd057c964257b1999]
reverse link filedb to filedb_folder--><path d="M196.15,284.3 C195.53,267.55 194.67,244.69 194.01,227 " fill="none" id="filedb&lt;-filedb_folder" style="stroke: #000000; stroke-width: 1.0;"/><polygon fill="#000000" points="196.35,289.73,199.9871,280.5773,196.1502,284.734,191.9935,280.8971,196.35,289.73" style="stroke: #000000; stroke-width: 1.0;"/><!--MD5=[83c102237b845071bed8b211fbeb020c]
reverse link mongo_express to mongodb--><path d="M306.39,330.17 C290.63,347.18 268.77,370.79 254.04,386.69 " fill="none" id="mongo_express&lt;-mongodb" style="stroke: #000000; stroke-width: 1.0;"/><polygon fill="#000000" points="309.86,326.42,300.81,330.3055,306.4627,330.0885,306.6796,335.7412,309.86,326.42" style="stroke: #000000; stroke-width: 1.0;"/><!--MD5=[53a38ca658f7ef0a590efc4f6f259449]
reverse link user to filedb_folder--><path d="M240.37,89.77 C229.15,115.41 214.91,147.95 204.99,170.62 " fill="none" id="user&lt;-filedb_folder" style="stroke: #000000; stroke-width: 1.0;"/><polygon fill="#000000" points="242.43,85.07,235.1656,91.7205,240.4312,89.6531,242.4985,94.9186,242.43,85.07" style="stroke: #000000; stroke-width: 1.0;"/><!--MD5=[6ae8bd2450b59582416ac21eef876515]
reverse link user to mongo_express--><path d="M274.28,94.16 C278.03,105.15 281.84,116.94 285,128 C301.77,186.7 316.39,257.75 322.7,289.82 " fill="none" id="user&lt;-mongo_express" style="stroke: #000000; stroke-width: 1.0;"/><polygon fill="#000000" points="272.56,89.18,271.7088,98.992,274.1882,93.9075,279.2727,96.3869,272.56,89.18" style="stroke: #000000; stroke-width: 1.0;"/><text fill="#000000" font-family="sans-serif" font-size="13" lengthAdjust="spacingAndGlyphs" textLength="131" x="310" y="203.5669">http://localhost:8081</text><!--MD5=[ae555aa148de488b5f0070b9b42d4ff9]
@startuml plantuml/mongodb_filedb
actor user
package host {
cloud {
    component sensor
    component formula
    component filedb
    component mongodb
    component mongo_express
  }
  folder "./filedb" as filedb_folder
  file "./sensor/hwpc-mongodb.json" as sensor_conf
  file "./formula/smartwatts-mongodb-filedb.json" as formula_conf
}
sensor <-[#black,dashed]- sensor_conf
formula <-[#black,dashed]- formula_conf

mongodb <-[#red]- sensor

formula <-[#blue]- mongodb
filedb_folder <-[#blue]- formula

filedb_folder <-[#black]- filedb
filedb<-[#black]- filedb_folder

mongo_express <-[#black]- mongodb

user <-[#black]- filedb_folder
user <-[#black]- mongo_express : http://localhost:8081
@enduml

PlantUML version 1.2020.02(Sun Mar 01 11:22:07 CET 2020)
(GPL source distribution)
Java Runtime: OpenJDK Runtime Environment
JVM: OpenJDK 64-Bit Server VM
Java Version: 11.0.22+7-post-Ubuntu-0ubuntu222.04.1
Operating System: Linux
Default Encoding: UTF-8
Language: en
Country: null
--></g></svg>