<?xml version="1.0" encoding="UTF-8" standalone="no"?><svg xmlns="http://www.w3.org/2000/svg" xmlns:xlink="http://www.w3.org/1999/xlink" contentScriptType="application/ecmascript" contentStyleType="text/css" height="568px" preserveAspectRatio="none" style="width:673px;height:568px;" version="1.1" viewBox="0 0 673 568" width="673px" zoomAndPan="magnify"><defs><filter height="300%" id="f1gm15sgpo8aof" width="300%" x="-1" y="-1"><feGaussianBlur result="blurOut" stdDeviation="2.0"/><feColorMatrix in="blurOut" result="blurOut2" type="matrix" values="0 0 0 0 0 0 0 0 0 0 0 0 0 0 0 0 0 0 .4 0"/><feOffset dx="4.0" dy="4.0" in="blurOut2" result="blurOut3"/><feBlend in="SourceGraphic" in2="blurOut3" mode="normal"/></filter></defs><g><!--MD5=[c8375d0abf05781a4d00ac7db9cff037]
cluster host--><polygon fill="#FFFFFF" filter="url(#f1gm15sgpo8aof)" points="22,152,63,152,70,174.2969,651,174.2969,651,556,22,556,22,152" style="stroke: #000000; stroke-width: 1.5;"/><line style="stroke: #000000; stroke-width: 1.5;" x1="22" x2="70" y1="174.2969" y2="174.2969"/><text fill="#000000" font-family="sans-serif" font-size="14" font-weight="bold" lengthAdjust="spacingAndGlyphs" textLength="35" x="26" y="166.9951">host</text><path d="M273.393,205.7938 C279.1037,195.204 285.8258,193.1877 293.8924,203.4812 C297.8329,194.8803 305.1073,193.4658 311.3449,200.996 C316.4446,193.8436 322.6491,193.4598 327.9355,200.7821 C332.4099,193.6779 340.1598,194.107 343.9947,201.4909 C347.5261,191.9908 356.2736,191.1691 362.5567,198.4464 C367.956,190.8936 375.5283,191.495 380.069,199.4181 C386.5981,190.8632 393.5337,192.6187 398.9539,200.6785 C404.542,193.7484 411.8181,195.3093 415.2351,203.0825 C421.3811,192.9384 430.2646,195.7749 435.1834,204.3877 C445.0845,194.6968 452.843,197.3621 457,210 C459.073,209.5529 460.6088,210.9062 459.9124,213.0788 C466.6183,218.6189 466.7013,224.6322 459.4334,229.7713 C466.8935,232.1701 469.4011,239.2742 462.1674,244.4161 C469.5177,249.9321 470.5187,256.3334 462.3269,261.9905 C471.3714,267.7084 470.6984,274.363 461.4977,279.2019 C471.0358,281.5227 472.5978,289.0319 464.9074,295.0576 C472.0308,300.1618 470.1009,305.9606 463.2535,309.4605 C473.3073,313.9399 472.8407,322.919 464.3714,328.4867 C473.5793,334.1674 472.5498,340.5782 463.7954,345.6564 C470.9193,349.1005 471.9728,354.5151 464.9603,359.1772 C471.5593,366.1362 472.7443,372.9166 462.4716,377.5959 C471.1357,382.9146 470.3729,389.1709 462.7542,394.7577 C468.938,400.0829 468.5446,406.348 460.4666,409.4529 C468.1626,413.8788 468.6186,422.0976 459.7826,425.833 C468.354,438.0865 462.4845,445.6377 450,449 C450.9259,447.9377 452.1559,447.8113 452.7526,449.3486 C448.9305,457.9721 443.1834,460.5491 435.279,454.0727 C429.8316,462.4506 420.7488,461.5546 415.7255,453.566 C410.8811,464.2496 404.4152,463.5963 397.4421,455.6557 C395.2937,464.6628 388.7187,466.4843 382.4596,459.5092 C377.3363,468.6993 370.2676,469.7504 364.3415,460.2891 C357.0045,468.8742 350.6025,469.788 344.3392,459.1707 C337.5005,466.0904 331.9561,465.907 327.1204,456.9926 C321.6964,464.2433 315.2402,464.4713 311.338,455.511 C304.0043,462.2586 296.9523,460.8396 292.7961,451.7831 C279.014,462.9892 270.5883,455.9756 266,442 C266.7608,441.0164 267.6298,440.9568 268.2264,442.1667 C261.7396,439.3614 261.0578,432.4117 266.3003,428.0104 C259.512,423.0502 259.2096,415.4234 267.3721,411.4295 C258.3099,405.376 260.1754,399.6352 267.4074,393.6141 C260.4352,389.7859 259.4384,383.7018 266.3015,378.8381 C255.8518,374.3093 257.23,367.1065 264.3499,360.6884 C256.7483,355.3466 256.9281,350.4121 263.8296,344.6014 C254.683,339.1644 256.6629,331.5114 264.6113,326.8261 C257.7821,322.026 258.413,314.8228 265.2208,310.5328 C257.4094,306.2276 255.0838,299.1106 263.8484,293.4718 C256.3783,288.2501 257.1599,282.5969 264.447,277.9442 C257.8815,272.4133 258.7339,264.9931 267.7914,262.9458 C259.9797,258.0236 258.4223,250.517 266.8993,244.7942 C258.78,240.834 259.8715,232.9825 266.6523,228.7923 C258.112,218.3693 258.9653,207.8671 273,203 C274.3304,203.6999 274.4015,204.7649 273.393,205.7938 " fill="#FFFFFF" style="stroke: #000000; stroke-width: 1.5;"/><!--MD5=[3f1c0ee212558f881841567ba63ec63a]
entity sensor_conf--><polygon fill="#FEFECE" filter="url(#f1gm15sgpo8aof)" points="38,504,38,540.2969,262,540.2969,262,514,252,504,38,504" style="stroke: #000000; stroke-width: 1.5;"/><path d="M252,504 L252,514 L262,514 " fill="#FEFECE" style="stroke: #000000; stroke-width: 1.5;"/><text fill="#000000" font-family="sans-serif" font-size="14" lengthAdjust="spacingAndGlyphs" textLength="204" x="48" y="526.9951">./sensor/hwpc-mongodb.json</text><!--MD5=[e9be86bc547b9abe2224b91dff6d3109]
entity formula_conf--><polygon fill="#FEFECE" filter="url(#f1gm15sgpo8aof)" points="297,504,297,540.2969,635,540.2969,635,514,625,504,297,504" style="stroke: #000000; stroke-width: 1.5;"/><path d="M625,504 L625,514 L635,514 " fill="#FEFECE" style="stroke: #000000; stroke-width: 1.5;"/><text fill="#000000" font-family="sans-serif" font-size="14" lengthAdjust="spacingAndGlyphs" textLength="318" x="307" y="526.9951">./formula/smartwatts-mongodb-mongodb.json</text><!--MD5=[88723051146da09166554e42ec8ff111]
entity sensor--><rect fill="#FEFECE" filter="url(#f1gm15sgpo8aof)" height="36.2969" style="stroke: #A80036; stroke-width: 1.5;" width="68" x="274" y="405"/><rect fill="#FEFECE" height="5" style="stroke: #A80036; stroke-width: 1.5;" width="10" x="269" y="410"/><rect fill="#FEFECE" height="5" style="stroke: #A80036; stroke-width: 1.5;" width="10" x="269" y="431.2969"/><text fill="#000000" font-family="sans-serif" font-size="14" lengthAdjust="spacingAndGlyphs" textLength="48" x="284" y="427.9951">sensor</text><!--MD5=[a3660b1a6a3394f243ce337f96f33b73]
entity formula--><rect fill="#FEFECE" filter="url(#f1gm15sgpo8aof)" height="36.2969" style="stroke: #A80036; stroke-width: 1.5;" width="71" x="377.5" y="405"/><rect fill="#FEFECE" height="5" style="stroke: #A80036; stroke-width: 1.5;" width="10" x="372.5" y="410"/><rect fill="#FEFECE" height="5" style="stroke: #A80036; stroke-width: 1.5;" width="10" x="372.5" y="431.2969"/><text fill="#000000" font-family="sans-serif" font-size="14" lengthAdjust="spacingAndGlyphs" textLength="51" x="387.5" y="427.9951">formula</text><!--MD5=[920f55dacc69cbaf43b0aa823f7e1721]
entity mongodb--><rect fill="#FEFECE" filter="url(#f1gm15sgpo8aof)" height="36.2969" style="stroke: #A80036; stroke-width: 1.5;" width="87" x="355.5" y="308"/><rect fill="#FEFECE" height="5" style="stroke: #A80036; stroke-width: 1.5;" width="10" x="350.5" y="313"/><rect fill="#FEFECE" height="5" style="stroke: #A80036; stroke-width: 1.5;" width="10" x="350.5" y="334.2969"/><text fill="#000000" font-family="sans-serif" font-size="14" lengthAdjust="spacingAndGlyphs" textLength="67" x="365.5" y="330.9951">mongodb</text><!--MD5=[e1274413823b2aecb6a828d3df10bd14]
entity mongo_express--><rect fill="#FEFECE" filter="url(#f1gm15sgpo8aof)" height="36.2969" style="stroke: #A80036; stroke-width: 1.5;" width="131" x="317.5" y="211"/><rect fill="#FEFECE" height="5" style="stroke: #A80036; stroke-width: 1.5;" width="10" x="312.5" y="216"/><rect fill="#FEFECE" height="5" style="stroke: #A80036; stroke-width: 1.5;" width="10" x="312.5" y="237.2969"/><text fill="#000000" font-family="sans-serif" font-size="14" lengthAdjust="spacingAndGlyphs" textLength="111" x="327.5" y="233.9951">mongo_express</text><!--MD5=[8fc3522a43f8c7199df5e09e5bb0188e]
entity user--><ellipse cx="383" cy="17.5" fill="#FEFECE" filter="url(#f1gm15sgpo8aof)" rx="8" ry="8" style="stroke: #A80036; stroke-width: 1.5;"/><path d="M383,25.5 L383,52.5 M370,33.5 L396,33.5 M383,52.5 L370,67.5 M383,52.5 L396,67.5 " fill="none" filter="url(#f1gm15sgpo8aof)" style="stroke: #A80036; stroke-width: 1.5;"/><text fill="#000000" font-family="sans-serif" font-size="14" lengthAdjust="spacingAndGlyphs" textLength="31" x="367.5" y="85.9951">user</text><!--MD5=[76286260649d01659287824b568d6919]
reverse link sensor to sensor_conf--><path d="M275.61,443.88 C246.83,461.55 205.2,487.11 177.87,503.89 " fill="none" id="sensor&lt;-sensor_conf" style="stroke: #000000; stroke-width: 1.0; stroke-dasharray: 7.0,7.0;"/><polygon fill="#000000" points="280.12,441.12,270.3555,442.4065,275.8554,443.7301,274.5317,449.23,280.12,441.12" style="stroke: #000000; stroke-width: 1.0;"/><!--MD5=[053e6d91461054e6621e7ad193d9d11d]
reverse link formula to formula_conf--><path d="M425.07,446.09 C434.64,463.6 447.82,487.72 456.61,503.81 " fill="none" id="formula&lt;-formula_conf" style="stroke: #000000; stroke-width: 1.0; stroke-dasharray: 7.0,7.0;"/><polygon fill="#000000" points="422.48,441.34,423.2915,451.1554,424.8803,445.7262,430.3094,447.3149,422.48,441.34" style="stroke: #000000; stroke-width: 1.0;"/><!--MD5=[2372ee969bd99b0ea5cddc9d6c93fe90]
reverse link mongodb to sensor--><path d="M378.73,348.17 C362.43,365.18 339.82,388.79 324.58,404.69 " fill="none" id="mongodb&lt;-sensor" style="stroke: #FF0000; stroke-width: 1.0;"/><polygon fill="#FF0000" points="382.31,344.42,373.1834,348.1221,378.8393,348.0192,378.9422,353.6751,382.31,344.42" style="stroke: #FF0000; stroke-width: 1.0;"/><!--MD5=[a7d841c175eb5ed1463f2c88dfb50355]
reverse link formula to mongodb--><path d="M421.36,399.66 C421.61,382.78 417.94,359.96 412.3,344.42 " fill="none" id="formula&lt;-mongodb" style="stroke: #0000FF; stroke-width: 1.0;"/><polygon fill="#0000FF" points="421.15,404.69,425.5065,395.8571,421.3498,399.694,417.5129,395.5373,421.15,404.69" style="stroke: #0000FF; stroke-width: 1.0;"/><!--MD5=[365c261b06f8f2e686f86cdab1ee4ab1]
reverse link mongodb to formula--><path d="M391.29,349.46 C391.2,366.37 394.87,389.19 400.34,404.69 " fill="none" id="mongodb&lt;-formula" style="stroke: #0000FF; stroke-width: 1.0;"/><polygon fill="#0000FF" points="391.44,344.42,387.1846,353.3021,391.2972,349.418,395.1813,353.5306,391.44,344.42" style="stroke: #0000FF; stroke-width: 1.0;"/><!--MD5=[83c102237b845071bed8b211fbeb020c]
reverse link mongo_express to mongodb--><path d="M386.78,252.46 C389.63,269.37 393.47,292.19 396.08,307.69 " fill="none" id="mongo_express&lt;-mongodb" style="stroke: #000000; stroke-width: 1.0;"/><polygon fill="#000000" points="385.93,247.42,383.5043,256.9655,386.7728,252.3485,391.3899,255.6169,385.93,247.42" style="stroke: #000000; stroke-width: 1.0;"/><!--MD5=[6ae8bd2450b59582416ac21eef876515]
reverse link user to mongo_express--><path d="M383,94.57 C383,132.27 383,184.03 383,210.65 " fill="none" id="user&lt;-mongo_express" style="stroke: #000000; stroke-width: 1.0;"/><polygon fill="#000000" points="383,89.11,379,98.11,383,94.11,387,98.11,383,89.11" style="stroke: #000000; stroke-width: 1.0;"/><text fill="#000000" font-family="sans-serif" font-size="13" lengthAdjust="spacingAndGlyphs" textLength="131" x="384" y="132.0669">http://localhost:8081</text><!--MD5=[0ed60aee7db4f05dc83a3c7e50f84dd9]
@startuml plantuml/mongodb_mongodb
actor user
package host {
cloud {
    component sensor
    component formula
    component mongodb
    component mongo_express
  }
  file "./sensor/hwpc-mongodb.json" as sensor_conf
  file "./formula/smartwatts-mongodb-mongodb.json" as formula_conf
}
sensor <-[#black,dashed]- sensor_conf
formula <-[#black,dashed]- formula_conf

mongodb <-[#red]- sensor

formula <-[#blue]- mongodb
mongodb <-[#blue]- formula 

mongo_express <-[#black]- mongodb

user <-[#black]- mongo_express : http://localhost:8081
@enduml

PlantUML version 1.2020.02(Sun Mar 01 11:22:07 CET 2020)
(GPL source distribution)
Java Runtime: OpenJDK Runtime Environment
JVM: OpenJDK 64-Bit Server VM
Java Version: 11.0.22+7-post-Ubuntu-0ubuntu222.04.1
Operating System: Linux
Default Encoding: UTF-8
Language: en
Country: null
--></g></svg>