<?xml version="1.0" encoding="UTF-8" standalone="no"?><svg xmlns="http://www.w3.org/2000/svg" xmlns:xlink="http://www.w3.org/1999/xlink" contentScriptType="application/ecmascript" contentStyleType="text/css" height="698px" preserveAspectRatio="none" style="width:641px;height:698px;" version="1.1" viewBox="0 0 641 698" width="641px" zoomAndPan="magnify"><defs><filter height="300%" id="f1j541f2gg2jl1" width="300%" x="-1" y="-1"><feGaussianBlur result="blurOut" stdDeviation="2.0"/><feColorMatrix in="blurOut" result="blurOut2" type="matrix" values="0 0 0 0 0 0 0 0 0 0 0 0 0 0 0 0 0 0 .4 0"/><feOffset dx="4.0" dy="4.0" in="blurOut2" result="blurOut3"/><feBlend in="SourceGraphic" in2="blurOut3" mode="normal"/></filter></defs><g><!--MD5=[c8375d0abf05781a4d00ac7db9cff037]
cluster host--><polygon fill="#FFFFFF" filter="url(#f1j541f2gg2jl1)" points="22,152,63,152,70,174.2969,619,174.2969,619,686,22,686,22,152" style="stroke: #000000; stroke-width: 1.5;"/><line style="stroke: #000000; stroke-width: 1.5;" x1="22" x2="70" y1="174.2969" y2="174.2969"/><text fill="#000000" font-family="sans-serif" font-size="14" font-weight="bold" lengthAdjust="spacingAndGlyphs" textLength="35" x="26" y="166.9951">host</text><path d="M63.4436,207.287 C67.1491,191.8539 81.9059,189.2931 92.385,199.7005 C102.0919,185.2669 111.2303,186.5857 121.3088,199.3047 C125.9227,184.7774 137.1956,179.5801 149.7063,190.4882 C163.7587,178.0529 172.0153,182.5914 178.3501,198.3335 C186.9871,183.9502 199.6766,183.3559 207.5324,199.0905 C222.4761,187.722 236.2669,190.0447 241,210 C244.9587,209.2467 246.5237,211.0454 245.6803,214.8891 C254.6032,222.8464 252.8299,230.0437 243.3394,235.9549 C257.0903,241.4889 261.2452,255.588 247.2117,264.846 C259.7614,272.4485 258.8546,283.6228 245.1322,288.9597 C257.414,297.1018 258.2355,309.8277 244.7735,317.648 C254.56,324.2434 255.9806,333.4084 245.008,340.2194 C259.5608,345.5452 260.6338,357.438 248.2101,366.1014 C261.4336,374.8969 260.5968,383.2804 248.1547,392.0211 C262.2056,399.192 261.4924,410.8235 250.2012,419.8575 C260.5797,428.9063 260.9659,438.7186 248.1542,445.9481 C260.6188,454.7561 257.5673,463.0599 246.4084,470.1649 C259.4648,478.1345 258.8777,489.6464 246.6371,497.8251 C256.553,505.1561 257.2785,517.042 244.9871,522.9125 C254.8973,530.8742 253.8691,541.8041 242.0947,547.1814 C252.8634,560.7039 251.0689,572.5594 234,579 C237.1563,578.4454 239.3121,580.4905 238.4107,583.7243 C227.5664,596.3317 218.6067,594.5538 209.8115,581.4454 C202.1887,596.6914 191.04,598.2591 180.9804,583.8114 C171.5175,599.3242 159.5221,601.6888 148.7446,585.1329 C139.2029,597.706 130.0529,599.2293 120.1774,585.4954 C110.7919,599.3489 97.1488,598.8402 91.1097,582.2955 C74.4628,595.3807 61.8736,590.5379 54,572 C56.5121,571.6798 58.0996,573.0241 57.3613,575.676 C43.2346,567.7441 45.9256,557.6747 56.7788,549.1933 C44.4442,541.2465 42.7296,532.7722 54.3655,522.6463 C39.2898,515.4392 41.994,502.7324 54.0083,495.1731 C42.3607,489.7141 40.0362,480.0609 51.4946,472.0862 C40.3105,464.1112 38.998,452.6625 52.7337,445.8651 C38.2402,439.0129 39.0787,427.1783 51.1825,418.8015 C39.3842,411.0088 39.0228,400.5263 52.3288,393.8886 C41.0009,386.4381 37.9386,378.1198 50.3223,368.7748 C39.502,358.8889 40.805,347.2061 55.3762,342.1379 C41.3939,335.5271 40.1498,322.1266 53.5328,313.7394 C41.5715,306.6152 41.3368,296.7369 53.6106,289.6912 C43.215,279.8512 44.0359,270.4345 56.2318,262.7963 C44.9252,255.9409 45.7899,244.742 56.213,237.8701 C43.5379,224.2661 44.1865,212.5558 61,203 C64.1361,203.0275 64.7557,204.724 63.4436,207.287 " fill="#FFFFFF" style="stroke: #000000; stroke-width: 1.5;"/><!--MD5=[3f1c0ee212558f881841567ba63ec63a]
entity sensor_conf--><polygon fill="#FEFECE" filter="url(#f1j541f2gg2jl1)" points="38,634,38,670.2969,242,670.2969,242,644,232,634,38,634" style="stroke: #000000; stroke-width: 1.5;"/><path d="M232,634 L232,644 L242,644 " fill="#FEFECE" style="stroke: #000000; stroke-width: 1.5;"/><text fill="#000000" font-family="sans-serif" font-size="14" lengthAdjust="spacingAndGlyphs" textLength="184" x="48" y="656.9951">./sensor/hwpc-socket.json</text><!--MD5=[e9be86bc547b9abe2224b91dff6d3109]
entity formula_conf--><polygon fill="#FEFECE" filter="url(#f1j541f2gg2jl1)" points="267,535,267,571.2969,603,571.2969,603,545,593,535,267,535" style="stroke: #000000; stroke-width: 1.5;"/><path d="M593,535 L593,545 L603,545 " fill="#FEFECE" style="stroke: #000000; stroke-width: 1.5;"/><text fill="#000000" font-family="sans-serif" font-size="14" lengthAdjust="spacingAndGlyphs" textLength="316" x="277" y="557.9951">./formula/smartwatts-socket-prometheus.json</text><!--MD5=[89c1bb60b344551c1585cd46d802d6f2]
entity prometheus_conf--><polygon fill="#FEFECE" filter="url(#f1j541f2gg2jl1)" points="264.5,438,264.5,474.2969,495.5,474.2969,495.5,448,485.5,438,264.5,438" style="stroke: #000000; stroke-width: 1.5;"/><path d="M485.5,438 L485.5,448 L495.5,448 " fill="#FEFECE" style="stroke: #000000; stroke-width: 1.5;"/><text fill="#000000" font-family="sans-serif" font-size="14" lengthAdjust="spacingAndGlyphs" textLength="211" x="274.5" y="460.9951">./prometheus/prometheus.yml</text><!--MD5=[01ced5e465c1ad281c9e9cfff988fd4f]
entity grafana_conf--><polygon fill="#FEFECE" filter="url(#f1j541f2gg2jl1)" points="268,308,268,376.8906,548,376.8906,548,318,538,308,268,308" style="stroke: #000000; stroke-width: 1.5;"/><path d="M538,308 L538,318 L548,318 " fill="#FEFECE" style="stroke: #000000; stroke-width: 1.5;"/><text fill="#000000" font-family="sans-serif" font-size="14" lengthAdjust="spacingAndGlyphs" textLength="174" x="278" y="330.9951">./grafana/dashboards.yml</text><text fill="#000000" font-family="sans-serif" font-size="14" lengthAdjust="spacingAndGlyphs" textLength="260" x="278" y="347.292">./grafana/datasource-prometheus.yml</text><text fill="#000000" font-family="sans-serif" font-size="14" lengthAdjust="spacingAndGlyphs" textLength="256" x="278" y="363.5889">./grafana/power-api-prometheus.json</text><!--MD5=[88723051146da09166554e42ec8ff111]
entity sensor--><rect fill="#FEFECE" filter="url(#f1j541f2gg2jl1)" height="36.2969" style="stroke: #A80036; stroke-width: 1.5;" width="68" x="62" y="535"/><rect fill="#FEFECE" height="5" style="stroke: #A80036; stroke-width: 1.5;" width="10" x="57" y="540"/><rect fill="#FEFECE" height="5" style="stroke: #A80036; stroke-width: 1.5;" width="10" x="57" y="561.2969"/><text fill="#000000" font-family="sans-serif" font-size="14" lengthAdjust="spacingAndGlyphs" textLength="48" x="72" y="557.9951">sensor</text><!--MD5=[a3660b1a6a3394f243ce337f96f33b73]
entity formula--><rect fill="#FEFECE" filter="url(#f1j541f2gg2jl1)" height="36.2969" style="stroke: #A80036; stroke-width: 1.5;" width="71" x="154.5" y="438"/><rect fill="#FEFECE" height="5" style="stroke: #A80036; stroke-width: 1.5;" width="10" x="149.5" y="443"/><rect fill="#FEFECE" height="5" style="stroke: #A80036; stroke-width: 1.5;" width="10" x="149.5" y="464.2969"/><text fill="#000000" font-family="sans-serif" font-size="14" lengthAdjust="spacingAndGlyphs" textLength="51" x="164.5" y="460.9951">formula</text><!--MD5=[0daf287d247edc209e31f80828a70367]
entity socket--><rect fill="#FEFECE" filter="url(#f1j541f2gg2jl1)" height="36.2969" style="stroke: #A80036; stroke-width: 1.5;" width="67" x="165.5" y="535"/><rect fill="#FEFECE" height="5" style="stroke: #A80036; stroke-width: 1.5;" width="10" x="160.5" y="540"/><rect fill="#FEFECE" height="5" style="stroke: #A80036; stroke-width: 1.5;" width="10" x="160.5" y="561.2969"/><text fill="#000000" font-family="sans-serif" font-size="14" lengthAdjust="spacingAndGlyphs" textLength="47" x="175.5" y="557.9951">socket</text><!--MD5=[76c72a0d0666ffe20c687699125b4b7c]
entity prometheus--><rect fill="#FEFECE" filter="url(#f1j541f2gg2jl1)" height="36.2969" style="stroke: #A80036; stroke-width: 1.5;" width="105" x="127.5" y="324.5"/><rect fill="#FEFECE" height="5" style="stroke: #A80036; stroke-width: 1.5;" width="10" x="122.5" y="329.5"/><rect fill="#FEFECE" height="5" style="stroke: #A80036; stroke-width: 1.5;" width="10" x="122.5" y="350.7969"/><text fill="#000000" font-family="sans-serif" font-size="14" lengthAdjust="spacingAndGlyphs" textLength="85" x="137.5" y="347.4951">prometheus</text><!--MD5=[97029dda41c7f1332efacff3a5502fd8]
entity grafana--><rect fill="#FEFECE" filter="url(#f1j541f2gg2jl1)" height="36.2969" style="stroke: #A80036; stroke-width: 1.5;" width="71" x="144.5" y="211"/><rect fill="#FEFECE" height="5" style="stroke: #A80036; stroke-width: 1.5;" width="10" x="139.5" y="216"/><rect fill="#FEFECE" height="5" style="stroke: #A80036; stroke-width: 1.5;" width="10" x="139.5" y="237.2969"/><text fill="#000000" font-family="sans-serif" font-size="14" lengthAdjust="spacingAndGlyphs" textLength="51" x="154.5" y="233.9951">grafana</text><!--MD5=[8fc3522a43f8c7199df5e09e5bb0188e]
entity user--><ellipse cx="233" cy="17.5" fill="#FEFECE" filter="url(#f1j541f2gg2jl1)" rx="8" ry="8" style="stroke: #A80036; stroke-width: 1.5;"/><path d="M233,25.5 L233,52.5 M220,33.5 L246,33.5 M233,52.5 L220,67.5 M233,52.5 L246,67.5 " fill="none" filter="url(#f1j541f2gg2jl1)" style="stroke: #A80036; stroke-width: 1.5;"/><text fill="#000000" font-family="sans-serif" font-size="14" lengthAdjust="spacingAndGlyphs" textLength="31" x="217.5" y="85.9951">user</text><!--MD5=[76286260649d01659287824b568d6919]
reverse link sensor to sensor_conf--><path d="M106.02,576.09 C113.96,593.6 124.9,617.72 132.2,633.81 " fill="none" id="sensor&lt;-sensor_conf" style="stroke: #000000; stroke-width: 1.0; stroke-dasharray: 7.0,7.0;"/><polygon fill="#000000" points="103.87,571.34,103.9528,581.1885,105.939,575.8918,111.2357,577.8781,103.87,571.34" style="stroke: #000000; stroke-width: 1.0;"/><!--MD5=[053e6d91461054e6621e7ad193d9d11d]
reverse link formula to formula_conf--><path d="M230.54,474.2 C287.65,497.12 348.26,519.95 388.8,535 " fill="none" id="formula&lt;-formula_conf" style="stroke: #000000; stroke-width: 1.0; stroke-dasharray: 7.0,7.0;"/><polygon fill="#000000" points="225.74,472.27,232.592,479.3446,230.3774,474.1392,235.5828,471.9247,225.74,472.27" style="stroke: #000000; stroke-width: 1.0;"/><!--MD5=[6b37257178d82764ca52c0c47d57584a]
reverse link grafana to grafana_conf--><path d="M219.87,249.5 C252.79,265.6 300.27,288.82 339.29,307.9 " fill="none" id="grafana&lt;-grafana_conf" style="stroke: #000000; stroke-width: 1.0; stroke-dasharray: 7.0,7.0;"/><polygon fill="#000000" points="215.13,247.18,221.4586,254.7264,219.6219,249.3761,224.9723,247.5394,215.13,247.18" style="stroke: #000000; stroke-width: 1.0;"/><!--MD5=[4f9746807d0710d8ea445235bcef1630]
reverse link prometheus to prometheus_conf--><path d="M213.35,363.34 C221.09,367.88 229.31,372.64 237,377 C274.89,398.46 318.95,422.33 348.03,437.94 " fill="none" id="prometheus&lt;-prometheus_conf" style="stroke: #000000; stroke-width: 1.0; stroke-dasharray: 7.0,7.0;"/><polygon fill="#000000" points="208.6,360.55,214.3421,368.5518,212.9137,363.0782,218.3873,361.6499,208.6,360.55" style="stroke: #000000; stroke-width: 1.0;"/><!--MD5=[9e93e0db0a871f5e9db66e3912afd262]
reverse link formula to sensor--><path d="M169.06,478.17 C152.22,495.18 128.86,518.79 113.13,534.69 " fill="none" id="formula&lt;-sensor" style="stroke: #FF0000; stroke-width: 1.0;"/><polygon fill="#FF0000" points="172.76,474.42,163.5892,478.0112,169.246,477.9769,169.2802,483.6336,172.76,474.42" style="stroke: #FF0000; stroke-width: 1.0;"/><!--MD5=[a0eb6294693a1f107b3eceb90010c962]
reverse link formula to socket--><path d="M192.13,479.46 C193.73,496.37 195.89,519.19 197.36,534.69 " fill="none" id="formula&lt;-socket" style="stroke: #000000; stroke-width: 1.0;"/><polygon fill="#000000" points="191.65,474.42,188.5175,483.7574,192.122,479.3977,196.4818,483.0022,191.65,474.42" style="stroke: #000000; stroke-width: 1.0;"/><!--MD5=[14618f183caa80992c8b397ff7bcff0e]
reverse link prometheus to formula--><path d="M182.02,366.07 C183.92,387.24 186.72,418.44 188.45,437.7 " fill="none" id="prometheus&lt;-formula" style="stroke: #0000FF; stroke-width: 1.0;"/><polygon fill="#0000FF" points="181.56,360.92,178.3743,370.2394,182.0036,365.9003,186.3428,369.5296,181.56,360.92" style="stroke: #0000FF; stroke-width: 1.0;"/><!--MD5=[3ae5a2ef48e3b66163eb0587ee30d4d7]
reverse link grafana to prometheus--><path d="M180,252.57 C180,273.74 180,304.94 180,324.2 " fill="none" id="grafana&lt;-prometheus" style="stroke: #000000; stroke-width: 1.0;"/><polygon fill="#000000" points="180,247.42,176,256.42,180,252.42,184,256.42,180,247.42" style="stroke: #000000; stroke-width: 1.0;"/><!--MD5=[c8fa27da3a5af542e87d2658c6cd6656]
reverse link user to grafana--><path d="M212.4,60.24 C192.74,71.78 164.34,92.15 152,119 C137.88,149.71 155.63,188.69 168.63,210.74 " fill="none" id="user&lt;-grafana" style="stroke: #000000; stroke-width: 1.0;"/><polygon fill="#000000" points="217.2,57.49,207.402,58.4892,212.8605,59.9738,211.376,65.4323,217.2,57.49" style="stroke: #000000; stroke-width: 1.0;"/><text fill="#000000" font-family="sans-serif" font-size="13" lengthAdjust="spacingAndGlyphs" textLength="131" x="153" y="132.0669">http://localhost:3000</text><!--MD5=[fbde1936c9673a5a5e758157105af929]
reverse link user to prometheus--><path d="M252.9,64.59 C271.57,80.73 295.7,107.85 289,136 C270.91,212.02 217.89,290.53 193.08,324.33 " fill="none" id="user&lt;-prometheus" style="stroke: #000000; stroke-width: 1.0;"/><polygon fill="#000000" points="248.77,61.12,253.0716,69.9798,252.5923,64.3433,258.2289,63.8641,248.77,61.12" style="stroke: #000000; stroke-width: 1.0;"/><text fill="#000000" font-family="sans-serif" font-size="13" lengthAdjust="spacingAndGlyphs" textLength="131" x="287" y="233.5669">http://localhost:9090</text><!--MD5=[3596ac28bb000bd68d24f942be21d53e]
@startuml plantuml/socket_prometheus
actor user 
package host {
cloud {
    component sensor
    component formula
    component socket
    component prometheus
    component grafana
  }
  file "./sensor/hwpc-socket.json" as sensor_conf
  file "./formula/smartwatts-socket-prometheus.json" as formula_conf
  file "./prometheus/prometheus.yml" as prometheus_conf
  file "./grafana/dashboards.yml\n./grafana/datasource-prometheus.yml\n./grafana/power-api-prometheus.json" as grafana_conf
}
sensor <-[#black,dashed]- sensor_conf
formula <-[#black,dashed]- formula_conf
grafana <-[#black,dashed]- grafana_conf
prometheus <-[#black,dashed]- prometheus_conf

formula <-[#red]- sensor
formula <-[#black]- socket

prometheus <-[#blue]- formula

grafana <-[#black]- prometheus

user <-[#black]- grafana : http://localhost:3000
user <-[#black]- prometheus : http://localhost:9090
@enduml

PlantUML version 1.2020.02(Sun Mar 01 11:22:07 CET 2020)
(GPL source distribution)
Java Runtime: OpenJDK Runtime Environment
JVM: OpenJDK 64-Bit Server VM
Java Version: 11.0.22+7-post-Ubuntu-0ubuntu222.04.1
Operating System: Linux
Default Encoding: UTF-8
Language: en
Country: null
--></g></svg>