<?xml version="1.0" encoding="UTF-8" standalone="no"?><svg xmlns="http://www.w3.org/2000/svg" xmlns:xlink="http://www.w3.org/1999/xlink" contentScriptType="application/ecmascript" contentStyleType="text/css" height="521px" preserveAspectRatio="none" style="width:580px;height:521px;" version="1.1" viewBox="0 0 580 521" width="580px" zoomAndPan="magnify"><defs><filter height="300%" id="f1qvp7z9tali30" width="300%" x="-1" y="-1"><feGaussianBlur result="blurOut" stdDeviation="2.0"/><feColorMatrix in="blurOut" result="blurOut2" type="matrix" values="0 0 0 0 0 0 0 0 0 0 0 0 0 0 0 0 0 0 .4 0"/><feOffset dx="4.0" dy="4.0" in="blurOut2" result="blurOut3"/><feBlend in="SourceGraphic" in2="blurOut3" mode="normal"/></filter></defs><g><!--MD5=[c8375d0abf05781a4d00ac7db9cff037]
cluster host--><polygon fill="#FFFFFF" filter="url(#f1qvp7z9tali30)" points="22,114,63,114,70,136.2969,558,136.2969,558,509,22,509,22,114" style="stroke: #000000; stroke-width: 1.5;"/><line style="stroke: #000000; stroke-width: 1.5;" x1="22" x2="70" y1="136.2969" y2="136.2969"/><text fill="#000000" font-family="sans-serif" font-size="14" font-weight="bold" lengthAdjust="spacingAndGlyphs" textLength="35" x="26" y="128.9951">host</text><path d="M63.3933,257.5045 C67.4511,251.6685 73.6978,251.8465 76.4889,258.8014 C80.1636,251.3636 87.3425,251.6683 92.0736,257.5669 C96.1086,251.5904 102.5023,251.1297 106.6163,257.4736 C109.3983,251.542 114.4396,250.9144 118.9385,255.4531 C124.1033,247.4042 130.3187,248.7012 135.0383,255.9225 C138.4805,248.7719 145.2659,247.5963 149.6596,254.9643 C153.1749,249.4159 158.7168,248.216 162.5069,254.6701 C167.4955,247.6778 174.6489,248.2531 177.4955,256.7437 C181.308,250.6524 188.1261,249.9734 191.2431,257.4484 C194.6285,250.0115 201.5886,250.2296 205.7599,256.6235 C211.1657,249.1444 216.3514,250.3854 221.4803,256.9337 C230.5318,248.7263 238.9811,252.7806 241,264 C241.9992,263.9438 242.6772,264.6866 242.1205,265.6726 C249.6512,267.7781 249.1957,274.0255 244.4007,278.3483 C251.6482,281.503 252.6001,288.569 245.4936,292.8087 C251.6728,295.9083 253.0029,299.4983 247.9251,304.8677 C255.6863,308.2782 257.1544,314.25 250.2191,319.9028 C255.6841,323.2742 257.5558,326.8903 251.7298,331.7068 C256.7646,335.6753 257.0138,342.0469 250.4998,344.9421 C256.9845,350.0414 256.0299,354.8411 248.9648,358.3942 C254.3998,363.2169 254.9579,369.7057 247.0092,372.6987 C251.702,377.3396 250.8702,382.7845 244.9191,385.7165 C251.8486,397.6036 246.1708,403.9282 234,405 C235.5348,404.973 236.3666,406.0473 235.7815,407.5194 C232.5636,414.3687 225.2808,415.8299 221.0251,408.6077 C215.9331,415.2573 210.5927,415.9472 205.3695,408.7561 C202.1866,415.2752 197.7012,417.6542 192.0629,411.2929 C188.0773,418.2023 182.9675,417.2307 178.4704,411.859 C173.9564,420.4374 168.9361,422.0566 162.2846,413.93 C160.3368,421.3734 155.0602,422.9638 149.8239,416.9822 C144.0013,424.2625 136.0174,423.5004 133.4796,413.8172 C128.1136,418.6305 123.3697,419.1229 119.9566,411.6651 C114.5068,419.1027 108.6983,418.5743 104.2833,410.612 C99.5159,416.2662 93.7913,416.9927 90.0906,409.4637 C86.4093,414.7253 79.5917,416.1647 76.5851,408.745 C63.6563,417.187 56.8424,410.7587 54,398 C54.5553,397.5945 54.8354,397.7779 55.0131,398.3798 C49.4397,394.4676 48.8017,390.6161 54.6615,386.3693 C49.17,382.8468 48.2613,377.5156 54.0467,373.4562 C47.7176,369.5069 47.6956,365.2203 52.8728,360.2483 C46.0273,356.9952 43.7982,349.5548 51.5451,345.0288 C44.7637,341.8877 45.1244,336.5003 50.1403,332.0793 C45.1557,326.6346 45.2933,322.616 52.2469,319.1105 C46.5748,314.6601 46.0577,309.2294 53.1302,305.6131 C46.2778,300.9719 46.4817,295.8625 53.1554,291.245 C46.6145,287.915 46.0499,281.3279 53.1618,278.0046 C45.8059,268.3345 47.6554,258.9453 61,257 C61.8691,256.1748 63.0037,256.0547 63.3933,257.5045 " fill="#FFFFFF" style="stroke: #000000; stroke-width: 1.5;"/><!--MD5=[d9c70ef346bab41c919f7eded3117927]
entity csv_folder--><polygon fill="#FEFECE" filter="url(#f1qvp7z9tali30)" points="101.5,149,147.5,149,154.5,170,200.5,170,200.5,204.5938,101.5,204.5938,101.5,149" style="stroke: #000000; stroke-width: 1.5;"/><line style="stroke: #000000; stroke-width: 1.5;" x1="101.5" x2="154.5" y1="170" y2="170"/><text fill="#000000" font-family="sans-serif" font-size="14" lengthAdjust="spacingAndGlyphs" textLength="32" x="111.5" y="189.9951">./csv</text><!--MD5=[3f1c0ee212558f881841567ba63ec63a]
entity sensor_conf--><polygon fill="#FEFECE" filter="url(#f1qvp7z9tali30)" points="38,457,38,493.2969,242,493.2969,242,467,232,457,38,457" style="stroke: #000000; stroke-width: 1.5;"/><path d="M232,457 L232,467 L242,467 " fill="#FEFECE" style="stroke: #000000; stroke-width: 1.5;"/><text fill="#000000" font-family="sans-serif" font-size="14" lengthAdjust="spacingAndGlyphs" textLength="184" x="48" y="479.9951">./sensor/hwpc-socket.json</text><!--MD5=[e9be86bc547b9abe2224b91dff6d3109]
entity formula_conf--><polygon fill="#FEFECE" filter="url(#f1qvp7z9tali30)" points="268,361,268,397.2969,542,397.2969,542,371,532,361,268,361" style="stroke: #000000; stroke-width: 1.5;"/><path d="M532,361 L532,371 L542,371 " fill="#FEFECE" style="stroke: #000000; stroke-width: 1.5;"/><text fill="#000000" font-family="sans-serif" font-size="14" lengthAdjust="spacingAndGlyphs" textLength="254" x="278" y="383.9951">./formula/smartwatts-socket-csv.json</text><!--MD5=[88723051146da09166554e42ec8ff111]
entity sensor--><rect fill="#FEFECE" filter="url(#f1qvp7z9tali30)" height="36.2969" style="stroke: #A80036; stroke-width: 1.5;" width="68" x="62" y="361"/><rect fill="#FEFECE" height="5" style="stroke: #A80036; stroke-width: 1.5;" width="10" x="57" y="366"/><rect fill="#FEFECE" height="5" style="stroke: #A80036; stroke-width: 1.5;" width="10" x="57" y="387.2969"/><text fill="#000000" font-family="sans-serif" font-size="14" lengthAdjust="spacingAndGlyphs" textLength="48" x="72" y="383.9951">sensor</text><!--MD5=[a3660b1a6a3394f243ce337f96f33b73]
entity formula--><rect fill="#FEFECE" filter="url(#f1qvp7z9tali30)" height="36.2969" style="stroke: #A80036; stroke-width: 1.5;" width="71" x="161.5" y="265"/><rect fill="#FEFECE" height="5" style="stroke: #A80036; stroke-width: 1.5;" width="10" x="156.5" y="270"/><rect fill="#FEFECE" height="5" style="stroke: #A80036; stroke-width: 1.5;" width="10" x="156.5" y="291.2969"/><text fill="#000000" font-family="sans-serif" font-size="14" lengthAdjust="spacingAndGlyphs" textLength="51" x="171.5" y="287.9951">formula</text><!--MD5=[5b5b6116e9ca12b5be308e1a61d0aa39]
entity csv--><rect fill="#FEFECE" filter="url(#f1qvp7z9tali30)" height="36.2969" style="stroke: #A80036; stroke-width: 1.5;" width="43" x="83.5" y="265"/><rect fill="#FEFECE" height="5" style="stroke: #A80036; stroke-width: 1.5;" width="10" x="78.5" y="270"/><rect fill="#FEFECE" height="5" style="stroke: #A80036; stroke-width: 1.5;" width="10" x="78.5" y="291.2969"/><text fill="#000000" font-family="sans-serif" font-size="14" lengthAdjust="spacingAndGlyphs" textLength="23" x="93.5" y="287.9951">csv</text><!--MD5=[0daf287d247edc209e31f80828a70367]
entity socket--><rect fill="#FEFECE" filter="url(#f1qvp7z9tali30)" height="36.2969" style="stroke: #A80036; stroke-width: 1.5;" width="67" x="165.5" y="361"/><rect fill="#FEFECE" height="5" style="stroke: #A80036; stroke-width: 1.5;" width="10" x="160.5" y="366"/><rect fill="#FEFECE" height="5" style="stroke: #A80036; stroke-width: 1.5;" width="10" x="160.5" y="387.2969"/><text fill="#000000" font-family="sans-serif" font-size="14" lengthAdjust="spacingAndGlyphs" textLength="47" x="175.5" y="383.9951">socket</text><!--MD5=[8fc3522a43f8c7199df5e09e5bb0188e]
entity user--><ellipse cx="151" cy="17.5" fill="#FEFECE" filter="url(#f1qvp7z9tali30)" rx="8" ry="8" style="stroke: #A80036; stroke-width: 1.5;"/><path d="M151,25.5 L151,52.5 M138,33.5 L164,33.5 M151,52.5 L138,67.5 M151,52.5 L164,67.5 " fill="none" filter="url(#f1qvp7z9tali30)" style="stroke: #A80036; stroke-width: 1.5;"/><text fill="#000000" font-family="sans-serif" font-size="14" lengthAdjust="spacingAndGlyphs" textLength="31" x="135.5" y="85.9951">user</text><!--MD5=[76286260649d01659287824b568d6919]
reverse link sensor to sensor_conf--><path d="M106.2,401.8 C114.05,418.56 124.74,441.4 131.98,456.87 " fill="none" id="sensor&lt;-sensor_conf" style="stroke: #000000; stroke-width: 1.0; stroke-dasharray: 7.0,7.0;"/><polygon fill="#000000" points="104.07,397.24,104.2649,407.0869,106.1907,401.768,111.5096,403.6938,104.07,397.24" style="stroke: #000000; stroke-width: 1.0;"/><!--MD5=[053e6d91461054e6621e7ad193d9d11d]
reverse link formula to formula_conf--><path d="M237.71,302.4 C275.28,319.38 330.65,344.4 367.25,360.94 " fill="none" id="formula&lt;-formula_conf" style="stroke: #000000; stroke-width: 1.0; stroke-dasharray: 7.0,7.0;"/><polygon fill="#000000" points="232.76,300.16,239.3172,307.5087,237.3172,302.2172,242.6087,300.2171,232.76,300.16" style="stroke: #000000; stroke-width: 1.0;"/><!--MD5=[9e93e0db0a871f5e9db66e3912afd262]
reverse link formula to sensor--><path d="M174.5,304.94 C156.41,321.78 131.31,345.14 114.41,360.87 " fill="none" id="formula&lt;-sensor" style="stroke: #FF0000; stroke-width: 1.0;"/><polygon fill="#FF0000" points="178.48,301.24,169.1717,304.4579,174.8252,304.6521,174.631,310.3056,178.48,301.24" style="stroke: #FF0000; stroke-width: 1.0;"/><!--MD5=[a0eb6294693a1f107b3eceb90010c962]
reverse link formula to socket--><path d="M197.48,306.66 C197.84,323.34 198.31,345.66 198.64,360.87 " fill="none" id="formula&lt;-socket" style="stroke: #000000; stroke-width: 1.0;"/><polygon fill="#000000" points="197.37,301.24,193.5767,310.3291,197.4843,306.2387,201.5746,310.1462,197.37,301.24" style="stroke: #000000; stroke-width: 1.0;"/><!--MD5=[923a858c3150030d00844e94b4b36acd]
reverse link csv_folder to formula--><path d="M165.17,210.04 C173.17,228.13 182.85,250.01 189.42,264.86 " fill="none" id="csv_folder&lt;-formula" style="stroke: #0000FF; stroke-width: 1.0;"/><polygon fill="#0000FF" points="162.97,205.05,162.9385,214.8988,164.9861,209.6255,170.2594,211.6731,162.97,205.05" style="stroke: #0000FF; stroke-width: 1.0;"/><!--MD5=[e412d9c23bcbf7d16ce92c1a8d50efba]
reverse link csv_folder to csv--><path d="M149.4,210.04 C143.16,228.13 132.74,250.01 122.91,264.86 " fill="none" id="csv_folder&lt;-csv" style="stroke: #000000; stroke-width: 1.0;"/><polygon fill="#000000" points="151.05,205.05,144.4224,212.3352,149.4774,209.7963,152.0164,214.8513,151.05,205.05" style="stroke: #000000; stroke-width: 1.0;"/><!--MD5=[6e242923bdc4a7b2d1cf43bb219e652e]
reverse link csv to csv_folder--><path d="M104.19,259.66 C108.76,243.66 118.11,222.03 127.69,205.05 " fill="none" id="csv&lt;-csv_folder" style="stroke: #000000; stroke-width: 1.0;"/><polygon fill="#000000" points="102.83,264.86,108.963,257.1538,104.0863,260.0204,101.2197,255.1437,102.83,264.86" style="stroke: #000000; stroke-width: 1.0;"/><!--MD5=[10db3e34bfc23dd8917552c3e5c7e640]
reverse link user to csv_folder--><path d="M151,94.26 C151,112.49 151,132.97 151,148.87 " fill="none" id="user&lt;-csv_folder" style="stroke: #000000; stroke-width: 1.0;"/><polygon fill="#000000" points="151,89.18,147,98.18,151,94.18,155,98.18,151,89.18" style="stroke: #000000; stroke-width: 1.0;"/><!--MD5=[280ddedb1edb83cdb4e43a873775506f]
@startuml plantuml/socket_csv
actor user
package host {
cloud {
    component sensor
    component formula
    component csv
    component socket
  }
  folder "./csv" as csv_folder
  file "./sensor/hwpc-socket.json" as sensor_conf
  file "./formula/smartwatts-socket-csv.json" as formula_conf
}
sensor <-[#black,dashed]- sensor_conf
formula <-[#black,dashed]- formula_conf

formula <-[#red]- sensor
formula <-[#black]- socket

csv_folder <-[#blue]- formula

csv_folder <-[#black]- csv
csv <-[#black]- csv_folder

user <-[#black]- csv_folder
@enduml

PlantUML version 1.2020.02(Sun Mar 01 11:22:07 CET 2020)
(GPL source distribution)
Java Runtime: OpenJDK Runtime Environment
JVM: OpenJDK 64-Bit Server VM
Java Version: 11.0.22+7-post-Ubuntu-0ubuntu222.04.1
Operating System: Linux
Default Encoding: UTF-8
Language: en
Country: null
--></g></svg>