<?xml version="1.0" encoding="UTF-8" standalone="no"?><svg xmlns="http://www.w3.org/2000/svg" xmlns:xlink="http://www.w3.org/1999/xlink" contentScriptType="application/ecmascript" contentStyleType="text/css" height="665px" preserveAspectRatio="none" style="width:623px;height:665px;" version="1.1" viewBox="0 0 623 665" width="623px" zoomAndPan="magnify"><defs><filter height="300%" id="f1w00fyi3ygb7d" width="300%" x="-1" y="-1"><feGaussianBlur result="blurOut" stdDeviation="2.0"/><feColorMatrix in="blurOut" result="blurOut2" type="matrix" values="0 0 0 0 0 0 0 0 0 0 0 0 0 0 0 0 0 0 .4 0"/><feOffset dx="4.0" dy="4.0" in="blurOut2" result="blurOut3"/><feBlend in="SourceGraphic" in2="blurOut3" mode="normal"/></filter></defs><g><!--MD5=[c8375d0abf05781a4d00ac7db9cff037]
cluster host--><polygon fill="#FFFFFF" filter="url(#f1w00fyi3ygb7d)" points="22,152,63,152,70,174.2969,601,174.2969,601,653,22,653,22,152" style="stroke: #000000; stroke-width: 1.5;"/><line style="stroke: #000000; stroke-width: 1.5;" x1="22" x2="70" y1="174.2969" y2="174.2969"/><text fill="#000000" font-family="sans-serif" font-size="14" font-weight="bold" lengthAdjust="spacingAndGlyphs" textLength="35" x="26" y="166.9951">host</text><path d="M64.4904,205.7587 C73.2904,193.0938 82.585,190.8922 93.6523,203.1004 C101.4021,191.6694 110.972,192.072 119.264,202.4641 C128.708,188.6498 138.7134,184.8739 149.9738,200.5742 C159.3023,186.8598 168.6013,186.3984 178.2029,200.295 C188.6862,186.8927 198.2448,189.7467 206.5115,202.6779 C221.2234,188.1162 233.1068,192.4441 241,210 C242.0815,208.613 243.7128,208.6589 244.4382,210.3923 C256.7329,217.4917 258.3415,229.2041 244.7597,236.6206 C254.3303,241.926 255.0664,250.5976 246.2533,257.235 C259.9367,265.77 258.6092,273.981 246.1508,282.4096 C258.1109,289.9301 257.693,300.3973 245.2266,306.9997 C257.1146,313.6499 257.7493,322.4828 246.8939,330.7308 C257.7403,336.4912 259.6823,348.1304 248.0449,354.959 C258.6322,361.3601 261.9712,368.5589 250.9627,377.7275 C259.8609,385.5908 259.4352,397.7289 246.4584,401.4364 C257.3432,406.7775 258.1498,415.747 249.0348,423.4307 C259.2181,432.5658 257.9366,439.486 245.8133,445.3415 C257.8984,453.6681 257.2646,462.9047 246.5415,471.8576 C255.9882,481.1537 254.3153,489.5484 243.4986,496.3244 C254.4152,502.362 255.3477,508.7829 246.1531,517.3586 C256.8079,531.342 251.2015,543.8365 234,546 C236.2798,544.6293 238.3134,545.8189 238.2925,548.461 C229.2927,564.4249 219.1125,565.3366 207.0797,551.6544 C202.7485,568.0237 187.9297,569.1169 177.5086,558.2719 C170.2368,570.9622 158.4334,572.6199 150.7664,558.6687 C139.281,572.3872 128.6802,570.257 120.3373,555.3305 C111.3832,567.8403 101.0547,565.3344 93.5687,553.7027 C72.3145,570.1843 61.1805,560.3943 54,539 C55.4439,538.4949 56.5955,539.2873 56.4963,540.8568 C44.6174,535.2244 45.5033,526.0409 55.7055,519.5875 C44.4063,515.6233 38.7942,504.3865 50.6383,495.5448 C40.5027,489.4215 38.0592,479.5203 49.6256,472.4457 C37.5047,464.4824 39.1966,454.4309 51.1361,447.9514 C39.2933,443.7746 35.875,434.0956 46.409,425.2577 C34.4003,416.2092 34.4307,407.5997 47.6628,399.7941 C35.1146,395.8836 33.7269,385.0797 42.3733,376.3809 C32.4853,366.2057 34.8958,359.8465 47.1373,354.4865 C33.0106,347.8076 32.3991,335.91 45.483,327.5595 C35.4933,320.4033 36.3866,313.2951 47.0588,307.7854 C37.3019,297.4399 38.4263,288.9937 50.4586,281.4625 C40.6663,272.9859 41.2422,264.388 53.7087,259.1543 C42.1493,250.7323 45.2117,241.0016 56.1534,234.8422 C41.9896,221.7824 45.8332,211.5954 61,203 C63.0836,202.325 64.8265,203.3721 64.4904,205.7587 " fill="#FFFFFF" style="stroke: #000000; stroke-width: 1.5;"/><!--MD5=[3f1c0ee212558f881841567ba63ec63a]
entity sensor_conf--><polygon fill="#FEFECE" filter="url(#f1w00fyi3ygb7d)" points="38,601,38,637.2969,242,637.2969,242,611,232,601,38,601" style="stroke: #000000; stroke-width: 1.5;"/><path d="M232,601 L232,611 L242,611 " fill="#FEFECE" style="stroke: #000000; stroke-width: 1.5;"/><text fill="#000000" font-family="sans-serif" font-size="14" lengthAdjust="spacingAndGlyphs" textLength="184" x="48" y="623.9951">./sensor/hwpc-socket.json</text><!--MD5=[e9be86bc547b9abe2224b91dff6d3109]
entity formula_conf--><polygon fill="#FEFECE" filter="url(#f1w00fyi3ygb7d)" points="267,502,267,538.2969,585,538.2969,585,512,575,502,267,502" style="stroke: #000000; stroke-width: 1.5;"/><path d="M575,502 L575,512 L585,512 " fill="#FEFECE" style="stroke: #000000; stroke-width: 1.5;"/><text fill="#000000" font-family="sans-serif" font-size="14" lengthAdjust="spacingAndGlyphs" textLength="298" x="277" y="524.9951">./formula/smartwatts-socket-mongodb.json</text><!--MD5=[88723051146da09166554e42ec8ff111]
entity sensor--><rect fill="#FEFECE" filter="url(#f1w00fyi3ygb7d)" height="36.2969" style="stroke: #A80036; stroke-width: 1.5;" width="68" x="62" y="502"/><rect fill="#FEFECE" height="5" style="stroke: #A80036; stroke-width: 1.5;" width="10" x="57" y="507"/><rect fill="#FEFECE" height="5" style="stroke: #A80036; stroke-width: 1.5;" width="10" x="57" y="528.2969"/><text fill="#000000" font-family="sans-serif" font-size="14" lengthAdjust="spacingAndGlyphs" textLength="48" x="72" y="524.9951">sensor</text><!--MD5=[a3660b1a6a3394f243ce337f96f33b73]
entity formula--><rect fill="#FEFECE" filter="url(#f1w00fyi3ygb7d)" height="36.2969" style="stroke: #A80036; stroke-width: 1.5;" width="71" x="155.5" y="405"/><rect fill="#FEFECE" height="5" style="stroke: #A80036; stroke-width: 1.5;" width="10" x="150.5" y="410"/><rect fill="#FEFECE" height="5" style="stroke: #A80036; stroke-width: 1.5;" width="10" x="150.5" y="431.2969"/><text fill="#000000" font-family="sans-serif" font-size="14" lengthAdjust="spacingAndGlyphs" textLength="51" x="165.5" y="427.9951">formula</text><!--MD5=[0daf287d247edc209e31f80828a70367]
entity socket--><rect fill="#FEFECE" filter="url(#f1w00fyi3ygb7d)" height="36.2969" style="stroke: #A80036; stroke-width: 1.5;" width="67" x="165.5" y="502"/><rect fill="#FEFECE" height="5" style="stroke: #A80036; stroke-width: 1.5;" width="10" x="160.5" y="507"/><rect fill="#FEFECE" height="5" style="stroke: #A80036; stroke-width: 1.5;" width="10" x="160.5" y="528.2969"/><text fill="#000000" font-family="sans-serif" font-size="14" lengthAdjust="spacingAndGlyphs" textLength="47" x="175.5" y="524.9951">socket</text><!--MD5=[920f55dacc69cbaf43b0aa823f7e1721]
entity mongodb--><rect fill="#FEFECE" filter="url(#f1w00fyi3ygb7d)" height="36.2969" style="stroke: #A80036; stroke-width: 1.5;" width="87" x="135.5" y="308"/><rect fill="#FEFECE" height="5" style="stroke: #A80036; stroke-width: 1.5;" width="10" x="130.5" y="313"/><rect fill="#FEFECE" height="5" style="stroke: #A80036; stroke-width: 1.5;" width="10" x="130.5" y="334.2969"/><text fill="#000000" font-family="sans-serif" font-size="14" lengthAdjust="spacingAndGlyphs" textLength="67" x="145.5" y="330.9951">mongodb</text><!--MD5=[e1274413823b2aecb6a828d3df10bd14]
entity mongo_express--><rect fill="#FEFECE" filter="url(#f1w00fyi3ygb7d)" height="36.2969" style="stroke: #A80036; stroke-width: 1.5;" width="131" x="101.5" y="211"/><rect fill="#FEFECE" height="5" style="stroke: #A80036; stroke-width: 1.5;" width="10" x="96.5" y="216"/><rect fill="#FEFECE" height="5" style="stroke: #A80036; stroke-width: 1.5;" width="10" x="96.5" y="237.2969"/><text fill="#000000" font-family="sans-serif" font-size="14" lengthAdjust="spacingAndGlyphs" textLength="111" x="111.5" y="233.9951">mongo_express</text><!--MD5=[8fc3522a43f8c7199df5e09e5bb0188e]
entity user--><ellipse cx="167" cy="17.5" fill="#FEFECE" filter="url(#f1w00fyi3ygb7d)" rx="8" ry="8" style="stroke: #A80036; stroke-width: 1.5;"/><path d="M167,25.5 L167,52.5 M154,33.5 L180,33.5 M167,52.5 L154,67.5 M167,52.5 L180,67.5 " fill="none" filter="url(#f1w00fyi3ygb7d)" style="stroke: #A80036; stroke-width: 1.5;"/><text fill="#000000" font-family="sans-serif" font-size="14" lengthAdjust="spacingAndGlyphs" textLength="31" x="151.5" y="85.9951">user</text><!--MD5=[76286260649d01659287824b568d6919]
reverse link sensor to sensor_conf--><path d="M106.02,543.09 C113.96,560.6 124.9,584.72 132.2,600.81 " fill="none" id="sensor&lt;-sensor_conf" style="stroke: #000000; stroke-width: 1.0; stroke-dasharray: 7.0,7.0;"/><polygon fill="#000000" points="103.87,538.34,103.9528,548.1885,105.939,542.8918,111.2357,544.8781,103.87,538.34" style="stroke: #000000; stroke-width: 1.0;"/><!--MD5=[053e6d91461054e6621e7ad193d9d11d]
reverse link formula to formula_conf--><path d="M231.49,440.37 C273.96,457.54 340.42,484.4 383.6,501.86 " fill="none" id="formula&lt;-formula_conf" style="stroke: #000000; stroke-width: 1.0; stroke-dasharray: 7.0,7.0;"/><polygon fill="#000000" points="226.69,438.43,233.5344,445.5119,231.3254,440.3042,236.5332,438.0952,226.69,438.43" style="stroke: #000000; stroke-width: 1.0;"/><!--MD5=[9e93e0db0a871f5e9db66e3912afd262]
reverse link formula to sensor--><path d="M169.83,445.17 C152.82,462.18 129.21,485.79 113.31,501.69 " fill="none" id="formula&lt;-sensor" style="stroke: #FF0000; stroke-width: 1.0;"/><polygon fill="#FF0000" points="173.58,441.42,164.3876,444.9555,170.0445,444.9555,170.0445,450.6124,173.58,441.42" style="stroke: #FF0000; stroke-width: 1.0;"/><!--MD5=[a0eb6294693a1f107b3eceb90010c962]
reverse link formula to socket--><path d="M192.89,446.46 C194.31,463.37 196.24,486.19 197.54,501.69 " fill="none" id="formula&lt;-socket" style="stroke: #000000; stroke-width: 1.0;"/><polygon fill="#000000" points="192.47,441.42,189.229,450.7203,192.884,446.4028,197.2015,450.0579,192.47,441.42" style="stroke: #000000; stroke-width: 1.0;"/><!--MD5=[365c261b06f8f2e686f86cdab1ee4ab1]
reverse link mongodb to formula--><path d="M181.84,349.46 C183.97,366.37 186.86,389.19 188.81,404.69 " fill="none" id="mongodb&lt;-formula" style="stroke: #0000FF; stroke-width: 1.0;"/><polygon fill="#0000FF" points="181.2,344.42,178.3372,353.8436,181.8149,349.382,186.2764,352.8598,181.2,344.42" style="stroke: #0000FF; stroke-width: 1.0;"/><!--MD5=[83c102237b845071bed8b211fbeb020c]
reverse link mongo_express to mongodb--><path d="M169.84,252.46 C171.97,269.37 174.86,292.19 176.81,307.69 " fill="none" id="mongo_express&lt;-mongodb" style="stroke: #000000; stroke-width: 1.0;"/><polygon fill="#000000" points="169.2,247.42,166.3372,256.8436,169.8149,252.382,174.2764,255.8598,169.2,247.42" style="stroke: #000000; stroke-width: 1.0;"/><!--MD5=[6ae8bd2450b59582416ac21eef876515]
reverse link user to mongo_express--><path d="M167,94.57 C167,132.27 167,184.03 167,210.65 " fill="none" id="user&lt;-mongo_express" style="stroke: #000000; stroke-width: 1.0;"/><polygon fill="#000000" points="167,89.11,163,98.11,167,94.11,171,98.11,167,89.11" style="stroke: #000000; stroke-width: 1.0;"/><text fill="#000000" font-family="sans-serif" font-size="13" lengthAdjust="spacingAndGlyphs" textLength="131" x="168" y="132.0669">http://localhost:8081</text><!--MD5=[e8d945cf5d54e0857222b277de027b42]
@startuml plantuml/socket_mongodb
actor user
package host {
cloud {
    component sensor
    component formula
    component socket
    component mongodb
    component mongo_express
  }
  file "./sensor/hwpc-socket.json" as sensor_conf
  file "./formula/smartwatts-socket-mongodb.json" as formula_conf
}
sensor <-[#black,dashed]- sensor_conf
formula <-[#black,dashed]- formula_conf

formula <-[#red]- sensor
formula <-[#black]- socket

mongodb <-[#blue]- formula 

mongo_express <-[#black]- mongodb

user <-[#black]- mongo_express : http://localhost:8081
@enduml

PlantUML version 1.2020.02(Sun Mar 01 11:22:07 CET 2020)
(GPL source distribution)
Java Runtime: OpenJDK Runtime Environment
JVM: OpenJDK 64-Bit Server VM
Java Version: 11.0.22+7-post-Ubuntu-0ubuntu222.04.1
Operating System: Linux
Default Encoding: UTF-8
Language: en
Country: null
--></g></svg>